<svg xmlns="http://www.w3.org/2000/svg" xmlns:xlink="http://www.w3.org/1999/xlink" viewBox="0 0 142.01 56.24"><defs><style>.cls-1{isolation:isolate;}.cls-2{mix-blend-mode:screen;}.cls-3{fill:url(#linear-gradient);}.cls-4{opacity:0;}.cls-5{fill:#a761ff;}.cls-6{opacity:0;}.cls-7{opacity:0;}.cls-8{opacity:0.01;}.cls-9{opacity:0.01;}.cls-10{opacity:0.01;}.cls-11{opacity:0.02;}.cls-12{opacity:0.02;}.cls-13{opacity:0.03;}.cls-14{opacity:0.03;}.cls-15{opacity:0.04;}.cls-16{opacity:0.05;}.cls-17{opacity:0.06;}.cls-18{opacity:0.08;}.cls-19{opacity:0.15;}.cls-20{fill:#fff;}</style><linearGradient id="linear-gradient" x1="71.01" y1="43.49" x2="71.01" y2="12.75" gradientUnits="userSpaceOnUse"><stop offset="0" stop-color="#a761ff"/><stop offset="0.08" stop-color="#854dca"/><stop offset="0.17" stop-color="#663b9b"/><stop offset="0.26" stop-color="#4a2b72"/><stop offset="0.36" stop-color="#331e4e"/><stop offset="0.46" stop-color="#211332"/><stop offset="0.56" stop-color="#120b1c"/><stop offset="0.68" stop-color="#08050c"/><stop offset="0.81" stop-color="#020103"/><stop offset="1"/></linearGradient></defs><g class="cls-1"><g id="Слой_2" data-name="Слой 2"><g id="Layer_1" data-name="Layer 1"><g class="cls-2"><path class="cls-3" d="M113.89,43.49H28.12A15.37,15.37,0,0,1,12.75,28.12h0A15.37,15.37,0,0,1,28.12,12.75h85.77a15.37,15.37,0,0,1,15.37,15.37h0A15.37,15.37,0,0,1,113.89,43.49Z"/></g><g class="cls-4"><path class="cls-5" d="M113.89,56.24H28.12A28.12,28.12,0,0,1,28.12,0h85.77a28.12,28.12,0,0,1,0,56.24ZM28.12,25.5a2.62,2.62,0,0,0,0,5.24h85.77a2.62,2.62,0,1,0,0-5.24Z"/></g><g class="cls-6"><path class="cls-5" d="M113.89,55.49H28.12a27.37,27.37,0,0,1,0-54.74h85.77a27.37,27.37,0,0,1,0,54.74ZM28.12,24.75a3.37,3.37,0,0,0,0,6.74h85.77a3.37,3.37,0,1,0,0-6.74Z"/></g><g class="cls-7"><path class="cls-5" d="M113.89,54.74H28.12a26.62,26.62,0,0,1,0-53.24h85.77a26.62,26.62,0,0,1,0,53.24ZM28.12,24a4.12,4.12,0,0,0,0,8.24h85.77a4.12,4.12,0,1,0,0-8.24Z"/></g><g class="cls-8"><path class="cls-5" d="M113.89,54H28.12a25.87,25.87,0,0,1,0-51.74h85.77a25.87,25.87,0,0,1,0,51.74ZM28.12,23.25a4.87,4.87,0,0,0,0,9.74h85.77a4.87,4.87,0,1,0,0-9.74Z"/></g><g class="cls-9"><path class="cls-5" d="M113.89,53.24H28.12A25.12,25.12,0,0,1,28.12,3h85.77a25.12,25.12,0,0,1,0,50.24ZM28.12,22.5a5.62,5.62,0,0,0,0,11.24h85.77a5.62,5.62,0,1,0,0-11.24Z"/></g><g class="cls-10"><path class="cls-5" d="M113.89,52.49H28.12a24.37,24.37,0,0,1,0-48.74h85.77a24.37,24.37,0,0,1,0,48.74ZM28.12,21.75a6.37,6.37,0,0,0,0,12.74h85.77a6.37,6.37,0,1,0,0-12.74Z"/></g><g class="cls-11"><path class="cls-5" d="M113.89,51.74H28.12a23.62,23.62,0,0,1,0-47.24h85.77a23.62,23.62,0,0,1,0,47.24ZM28.12,21a7.12,7.12,0,0,0,0,14.24h85.77a7.12,7.12,0,1,0,0-14.24Z"/></g><g class="cls-12"><path class="cls-5" d="M113.89,51H28.12a22.87,22.87,0,0,1,0-45.74h85.77a22.87,22.87,0,0,1,0,45.74ZM28.12,20.25a7.87,7.87,0,0,0,0,15.74h85.77a7.87,7.87,0,1,0,0-15.74Z"/></g><g class="cls-13"><path class="cls-5" d="M113.89,50.24H28.12A22.12,22.12,0,0,1,28.12,6h85.77a22.12,22.12,0,0,1,0,44.24ZM28.12,19.5a8.62,8.62,0,0,0,0,17.24h85.77a8.62,8.62,0,1,0,0-17.24Z"/></g><g class="cls-14"><path class="cls-5" d="M113.89,49.49H28.12a21.37,21.37,0,0,1,0-42.74h85.77a21.37,21.37,0,0,1,0,42.74ZM28.12,18.75a9.37,9.37,0,0,0,0,18.74h85.77a9.37,9.37,0,1,0,0-18.74Z"/></g><g class="cls-15"><path class="cls-5" d="M113.89,48.74H28.12a20.62,20.62,0,0,1,0-41.24h85.77a20.62,20.62,0,0,1,0,41.24ZM28.12,18a10.12,10.12,0,0,0,0,20.24h85.77a10.12,10.12,0,1,0,0-20.24Z"/></g><g class="cls-16"><path class="cls-5" d="M113.89,48H28.12a19.87,19.87,0,0,1,0-39.74h85.77a19.87,19.87,0,0,1,0,39.74ZM28.12,17.25a10.87,10.87,0,0,0,0,21.74h85.77a10.87,10.87,0,1,0,0-21.74Z"/></g><g class="cls-17"><path class="cls-5" d="M113.89,47.24H28.12A19.12,19.12,0,0,1,28.12,9h85.77a19.12,19.12,0,0,1,0,38.24ZM28.12,16.5a11.62,11.62,0,0,0,0,23.24h85.77a11.62,11.62,0,1,0,0-23.24Z"/></g><g class="cls-18"><path class="cls-5" d="M113.89,46.49H28.12a18.37,18.37,0,0,1,0-36.74h85.77a18.37,18.37,0,0,1,0,36.74ZM28.12,15.75a12.37,12.37,0,0,0,0,24.74h85.77a12.37,12.37,0,1,0,0-24.74Z"/></g><g class="cls-19"><path class="cls-5" d="M113.89,45.74H28.12a17.62,17.62,0,0,1,0-35.24h85.77a17.62,17.62,0,0,1,0,35.24ZM28.12,15a13.12,13.12,0,0,0,0,26.24h85.77a13.12,13.12,0,1,0,0-26.24Z"/></g><path class="cls-5" d="M113.89,45H28.12a16.87,16.87,0,0,1,0-33.74h85.77a16.87,16.87,0,0,1,0,33.74ZM28.12,14.25a13.87,13.87,0,0,0,0,27.74h85.77a13.87,13.87,0,1,0,0-27.74Z"/><path class="cls-20" d="M113.89,44H28.12a15.87,15.87,0,0,1,0-31.74h85.77a15.87,15.87,0,0,1,0,31.74ZM28.12,13.25a14.87,14.87,0,0,0,0,29.74h85.77a14.87,14.87,0,0,0,0-29.74Z"/></g></g></g></svg>