<svg xmlns="http://www.w3.org/2000/svg" xmlns:xlink="http://www.w3.org/1999/xlink" viewBox="0 0 712.78 472.49"><defs><style>.cls-1{fill:none;}.cls-2{isolation:isolate;}.cls-3{clip-path:url(#clip-path);}.cls-10,.cls-100,.cls-101,.cls-102,.cls-103,.cls-104,.cls-105,.cls-107,.cls-108,.cls-109,.cls-11,.cls-110,.cls-111,.cls-112,.cls-113,.cls-114,.cls-115,.cls-117,.cls-118,.cls-119,.cls-12,.cls-121,.cls-122,.cls-123,.cls-124,.cls-125,.cls-126,.cls-127,.cls-128,.cls-129,.cls-13,.cls-130,.cls-131,.cls-132,.cls-133,.cls-134,.cls-135,.cls-136,.cls-137,.cls-138,.cls-139,.cls-14,.cls-140,.cls-141,.cls-142,.cls-143,.cls-144,.cls-145,.cls-147,.cls-148,.cls-149,.cls-15,.cls-150,.cls-16,.cls-17,.cls-18,.cls-19,.cls-20,.cls-21,.cls-22,.cls-23,.cls-24,.cls-25,.cls-26,.cls-27,.cls-28,.cls-29,.cls-30,.cls-31,.cls-32,.cls-33,.cls-34,.cls-35,.cls-36,.cls-37,.cls-38,.cls-39,.cls-4,.cls-40,.cls-41,.cls-42,.cls-43,.cls-44,.cls-45,.cls-46,.cls-47,.cls-48,.cls-49,.cls-5,.cls-50,.cls-51,.cls-52,.cls-53,.cls-54,.cls-55,.cls-56,.cls-57,.cls-58,.cls-59,.cls-6,.cls-60,.cls-61,.cls-62,.cls-63,.cls-64,.cls-65,.cls-66,.cls-67,.cls-68,.cls-69,.cls-7,.cls-70,.cls-71,.cls-72,.cls-73,.cls-74,.cls-75,.cls-76,.cls-77,.cls-78,.cls-79,.cls-8,.cls-80,.cls-81,.cls-82,.cls-83,.cls-84,.cls-85,.cls-86,.cls-87,.cls-88,.cls-89,.cls-9,.cls-90,.cls-91,.cls-92,.cls-93,.cls-94,.cls-95,.cls-96,.cls-97,.cls-98,.cls-99{mix-blend-mode:screen;}.cls-104,.cls-105,.cls-111,.cls-119,.cls-122,.cls-123,.cls-124,.cls-125,.cls-126,.cls-127,.cls-137,.cls-145,.cls-18,.cls-19,.cls-20,.cls-21,.cls-32,.cls-33,.cls-34,.cls-35,.cls-4,.cls-46,.cls-47,.cls-48,.cls-5,.cls-50,.cls-59,.cls-6,.cls-60,.cls-7,.cls-70,.cls-71,.cls-79,.cls-8,.cls-80,.cls-82,.cls-83,.cls-84,.cls-9,.cls-92,.cls-94,.cls-98,.cls-99{opacity:0.32;}.cls-4{fill:url(#radial-gradient);}.cls-5{fill:url(#radial-gradient-2);}.cls-6{fill:url(#radial-gradient-3);}.cls-7{fill:url(#radial-gradient-4);}.cls-8{fill:url(#radial-gradient-5);}.cls-9{fill:url(#radial-gradient-6);}.cls-10,.cls-101,.cls-102,.cls-107,.cls-108,.cls-11,.cls-114,.cls-117,.cls-12,.cls-128,.cls-129,.cls-13,.cls-130,.cls-131,.cls-132,.cls-133,.cls-138,.cls-14,.cls-140,.cls-141,.cls-142,.cls-143,.cls-147,.cls-148,.cls-149,.cls-15,.cls-24,.cls-25,.cls-26,.cls-27,.cls-28,.cls-29,.cls-38,.cls-39,.cls-40,.cls-41,.cls-42,.cls-43,.cls-52,.cls-53,.cls-54,.cls-55,.cls-56,.cls-57,.cls-61,.cls-63,.cls-65,.cls-67,.cls-73,.cls-74,.cls-75,.cls-77,.cls-85,.cls-86,.cls-87,.cls-88,.cls-89,.cls-90,.cls-95,.cls-96{opacity:0.5;}.cls-10{fill:url(#radial-gradient-7);}.cls-11{fill:url(#radial-gradient-8);}.cls-12{fill:url(#radial-gradient-9);}.cls-13{fill:url(#radial-gradient-10);}.cls-14{fill:url(#radial-gradient-11);}.cls-15{fill:url(#radial-gradient-12);}.cls-16{fill:url(#radial-gradient-13);}.cls-17{fill:url(#radial-gradient-14);}.cls-18{fill:url(#radial-gradient-15);}.cls-19{fill:url(#radial-gradient-16);}.cls-20{fill:url(#radial-gradient-17);}.cls-21{fill:url(#radial-gradient-18);}.cls-22{fill:url(#radial-gradient-19);}.cls-23{fill:url(#radial-gradient-20);}.cls-24{fill:url(#radial-gradient-21);}.cls-25{fill:url(#radial-gradient-22);}.cls-26{fill:url(#radial-gradient-23);}.cls-27{fill:url(#radial-gradient-24);}.cls-28{fill:url(#radial-gradient-25);}.cls-29{fill:url(#radial-gradient-26);}.cls-30{fill:url(#radial-gradient-27);}.cls-31{fill:url(#radial-gradient-28);}.cls-32{fill:url(#radial-gradient-29);}.cls-33{fill:url(#radial-gradient-30);}.cls-34{fill:url(#radial-gradient-31);}.cls-35{fill:url(#radial-gradient-32);}.cls-36{fill:url(#radial-gradient-33);}.cls-37{fill:url(#radial-gradient-34);}.cls-38{fill:url(#radial-gradient-35);}.cls-39{fill:url(#radial-gradient-36);}.cls-40{fill:url(#radial-gradient-37);}.cls-41{fill:url(#radial-gradient-38);}.cls-42{fill:url(#radial-gradient-39);}.cls-43{fill:url(#radial-gradient-40);}.cls-44{fill:url(#radial-gradient-41);}.cls-45{fill:url(#radial-gradient-42);}.cls-46{fill:url(#radial-gradient-43);}.cls-47{fill:url(#radial-gradient-44);}.cls-48{fill:url(#radial-gradient-45);}.cls-49{fill:url(#radial-gradient-46);}.cls-50{fill:url(#radial-gradient-47);}.cls-51{fill:url(#radial-gradient-48);}.cls-52{fill:url(#radial-gradient-49);}.cls-53{fill:url(#radial-gradient-50);}.cls-54{fill:url(#radial-gradient-51);}.cls-55{fill:url(#radial-gradient-52);}.cls-56{fill:url(#radial-gradient-53);}.cls-57{fill:url(#radial-gradient-54);}.cls-58{fill:url(#radial-gradient-55);}.cls-59{fill:url(#radial-gradient-56);}.cls-60{fill:url(#radial-gradient-57);}.cls-61{fill:url(#radial-gradient-58);}.cls-62{fill:url(#radial-gradient-59);}.cls-63{fill:url(#radial-gradient-60);}.cls-64{fill:url(#radial-gradient-61);}.cls-65{fill:url(#radial-gradient-62);}.cls-66{fill:url(#radial-gradient-63);}.cls-67{fill:url(#radial-gradient-64);}.cls-68{fill:url(#radial-gradient-65);}.cls-69{fill:url(#radial-gradient-66);}.cls-70{fill:url(#radial-gradient-67);}.cls-71{fill:url(#radial-gradient-68);}.cls-72{fill:url(#radial-gradient-69);}.cls-73{fill:url(#radial-gradient-70);}.cls-74{fill:url(#radial-gradient-71);}.cls-75{fill:url(#radial-gradient-72);}.cls-76{fill:url(#radial-gradient-73);}.cls-77{fill:url(#radial-gradient-74);}.cls-78{fill:url(#radial-gradient-75);}.cls-79{fill:url(#radial-gradient-76);}.cls-80{fill:url(#radial-gradient-77);}.cls-81{fill:url(#radial-gradient-78);}.cls-82{fill:url(#radial-gradient-79);}.cls-83{fill:url(#radial-gradient-80);}.cls-84{fill:url(#radial-gradient-81);}.cls-85{fill:url(#radial-gradient-82);}.cls-86{fill:url(#radial-gradient-83);}.cls-87{fill:url(#radial-gradient-84);}.cls-88{fill:url(#radial-gradient-85);}.cls-89{fill:url(#radial-gradient-86);}.cls-90{fill:url(#radial-gradient-87);}.cls-91{fill:url(#radial-gradient-88);}.cls-92{fill:url(#radial-gradient-89);}.cls-93{fill:url(#radial-gradient-90);}.cls-94{fill:url(#radial-gradient-91);}.cls-95{fill:url(#radial-gradient-92);}.cls-96{fill:url(#radial-gradient-93);}.cls-97{fill:url(#radial-gradient-94);}.cls-98{fill:url(#radial-gradient-95);}.cls-99{fill:url(#radial-gradient-96);}.cls-100{fill:url(#radial-gradient-97);}.cls-101{fill:url(#radial-gradient-98);}.cls-102{fill:url(#radial-gradient-99);}.cls-103{fill:url(#radial-gradient-100);}.cls-104{fill:url(#radial-gradient-101);}.cls-105{fill:url(#radial-gradient-102);}.cls-106{fill:url(#radial-gradient-103);}.cls-107{fill:url(#radial-gradient-104);}.cls-108{fill:url(#radial-gradient-105);}.cls-109{fill:url(#radial-gradient-106);}.cls-110{fill:url(#radial-gradient-107);}.cls-111{fill:url(#radial-gradient-108);}.cls-112{fill:url(#radial-gradient-109);}.cls-113{fill:url(#radial-gradient-110);}.cls-114{fill:url(#radial-gradient-111);}.cls-115{fill:url(#radial-gradient-112);}.cls-116{fill:url(#radial-gradient-113);}.cls-117{fill:url(#radial-gradient-114);}.cls-118{fill:url(#radial-gradient-115);}.cls-119{fill:url(#radial-gradient-116);}.cls-120{fill:url(#radial-gradient-117);}.cls-121{fill:url(#radial-gradient-118);}.cls-122{fill:url(#radial-gradient-119);}.cls-123{fill:url(#radial-gradient-120);}.cls-124{fill:url(#radial-gradient-121);}.cls-125{fill:url(#radial-gradient-122);}.cls-126{fill:url(#radial-gradient-123);}.cls-127{fill:url(#radial-gradient-124);}.cls-128{fill:url(#radial-gradient-125);}.cls-129{fill:url(#radial-gradient-126);}.cls-130{fill:url(#radial-gradient-127);}.cls-131{fill:url(#radial-gradient-128);}.cls-132{fill:url(#radial-gradient-129);}.cls-133{fill:url(#radial-gradient-130);}.cls-134{fill:url(#radial-gradient-131);}.cls-135{fill:url(#radial-gradient-132);}.cls-136{fill:url(#radial-gradient-133);}.cls-137{fill:url(#radial-gradient-134);}.cls-138{fill:url(#radial-gradient-135);}.cls-139{fill:url(#radial-gradient-136);}.cls-140{fill:url(#radial-gradient-137);}.cls-141{fill:url(#radial-gradient-138);}.cls-142{fill:url(#radial-gradient-139);}.cls-143{fill:url(#radial-gradient-140);}.cls-144{fill:url(#radial-gradient-141);}.cls-145{fill:url(#radial-gradient-142);}.cls-146{fill:url(#radial-gradient-143);}.cls-147{fill:url(#radial-gradient-144);}.cls-148{fill:url(#radial-gradient-145);}.cls-149{fill:url(#radial-gradient-146);}.cls-150{fill:url(#radial-gradient-147);}</style><clipPath id="clip-path" transform="translate(-25.85 -18)"><rect class="cls-1" width="750" height="500"/></clipPath><radialGradient id="radial-gradient" cx="577.72" cy="365.39" r="3.52" gradientUnits="userSpaceOnUse"><stop offset="0.06" stop-color="#e47e99"/><stop offset="0.53" stop-color="#e43d99"/><stop offset="0.99" stop-color="#b30058"/></radialGradient><radialGradient id="radial-gradient-2" cx="567.95" cy="447.86" r="3.52" xlink:href="#radial-gradient"/><radialGradient id="radial-gradient-3" cx="461.66" cy="378.03" r="3.52" xlink:href="#radial-gradient"/><radialGradient id="radial-gradient-4" cx="453.44" cy="415.03" r="5.86" xlink:href="#radial-gradient"/><radialGradient id="radial-gradient-5" cx="449.14" cy="345.46" r="5.86" xlink:href="#radial-gradient"/><radialGradient id="radial-gradient-6" cx="599.21" cy="422.06" r="5.86" xlink:href="#radial-gradient"/><radialGradient id="radial-gradient-7" cx="-1066.72" cy="161.95" r="153.36" gradientTransform="translate(-545.88 485.04) rotate(180)" gradientUnits="userSpaceOnUse"><stop offset="0.06" stop-color="#0a1656"/><stop offset="0.89" stop-color="#4478ad"/></radialGradient><radialGradient id="radial-gradient-8" cx="-1066.72" cy="161.95" r="153.36" xlink:href="#radial-gradient-7"/><radialGradient id="radial-gradient-9" cx="-1066.72" cy="161.95" r="153.36" xlink:href="#radial-gradient-7"/><radialGradient id="radial-gradient-10" cx="-1066.72" cy="161.95" r="153.36" xlink:href="#radial-gradient-7"/><radialGradient id="radial-gradient-11" cx="-1066.72" cy="161.95" r="153.36" xlink:href="#radial-gradient-7"/><radialGradient id="radial-gradient-12" cx="-1066.72" cy="161.95" r="153.36" xlink:href="#radial-gradient-7"/><radialGradient id="radial-gradient-13" cx="-1131.4" cy="85.2" r="12.03" xlink:href="#radial-gradient-7"/><radialGradient id="radial-gradient-14" cx="-1012.07" cy="40.65" r="12.34" xlink:href="#radial-gradient-7"/><radialGradient id="radial-gradient-15" cx="572.91" cy="44.16" r="3.52" xlink:href="#radial-gradient"/><radialGradient id="radial-gradient-16" cx="563.14" cy="126.63" r="3.52" xlink:href="#radial-gradient"/><radialGradient id="radial-gradient-17" cx="456.85" cy="56.8" r="3.52" xlink:href="#radial-gradient"/><radialGradient id="radial-gradient-18" cx="448.63" cy="93.8" r="5.86" xlink:href="#radial-gradient"/><radialGradient id="radial-gradient-19" cx="444.33" cy="24.23" r="5.86" xlink:href="#radial-gradient"/><radialGradient id="radial-gradient-20" cx="594.41" cy="100.83" r="5.86" xlink:href="#radial-gradient"/><radialGradient id="radial-gradient-21" cx="-1061.91" cy="483.18" r="153.36" xlink:href="#radial-gradient-7"/><radialGradient id="radial-gradient-22" cx="-1061.91" cy="483.18" r="153.36" xlink:href="#radial-gradient-7"/><radialGradient id="radial-gradient-23" cx="-1061.91" cy="483.18" r="153.36" xlink:href="#radial-gradient-7"/><radialGradient id="radial-gradient-24" cx="-1061.91" cy="483.18" r="153.36" xlink:href="#radial-gradient-7"/><radialGradient id="radial-gradient-25" cx="-1061.91" cy="483.18" r="153.36" xlink:href="#radial-gradient-7"/><radialGradient id="radial-gradient-26" cx="-1061.91" cy="483.18" r="153.36" xlink:href="#radial-gradient-7"/><radialGradient id="radial-gradient-27" cx="-1126.59" cy="406.43" r="12.03" xlink:href="#radial-gradient-7"/><radialGradient id="radial-gradient-28" cx="-1007.26" cy="361.88" r="12.34" xlink:href="#radial-gradient-7"/><radialGradient id="radial-gradient-29" cx="46.7" cy="196.2" r="3.52" xlink:href="#radial-gradient"/><radialGradient id="radial-gradient-30" cx="36.92" cy="278.66" r="3.52" xlink:href="#radial-gradient"/><radialGradient id="radial-gradient-31" cx="53.98" cy="66.32" r="3.52" xlink:href="#radial-gradient"/><radialGradient id="radial-gradient-32" cx="45.76" cy="103.32" r="5.86" xlink:href="#radial-gradient"/><radialGradient id="radial-gradient-33" cx="41.46" cy="33.75" r="5.86" xlink:href="#radial-gradient"/><radialGradient id="radial-gradient-34" cx="68.19" cy="252.87" r="5.86" xlink:href="#radial-gradient"/><radialGradient id="radial-gradient-35" cx="-659.04" cy="473.66" r="153.36" xlink:href="#radial-gradient-7"/><radialGradient id="radial-gradient-36" cx="-659.04" cy="473.66" r="153.36" xlink:href="#radial-gradient-7"/><radialGradient id="radial-gradient-37" cx="-659.04" cy="473.66" r="153.36" xlink:href="#radial-gradient-7"/><radialGradient id="radial-gradient-38" cx="-659.04" cy="473.66" r="153.36" xlink:href="#radial-gradient-7"/><radialGradient id="radial-gradient-39" cx="-535.69" cy="331.15" r="153.36" xlink:href="#radial-gradient-7"/><radialGradient id="radial-gradient-40" cx="-535.69" cy="331.15" r="153.36" xlink:href="#radial-gradient-7"/><radialGradient id="radial-gradient-41" cx="-600.38" cy="254.4" r="12.03" xlink:href="#radial-gradient-7"/><radialGradient id="radial-gradient-42" cx="-604.39" cy="352.36" r="12.34" xlink:href="#radial-gradient-7"/><radialGradient id="radial-gradient-43" cx="182.2" cy="110.99" r="3.36" xlink:href="#radial-gradient"/><radialGradient id="radial-gradient-44" cx="215.65" cy="34.98" r="3.36" xlink:href="#radial-gradient"/><radialGradient id="radial-gradient-45" cx="296.88" cy="132.84" r="3.36" xlink:href="#radial-gradient"/><radialGradient id="radial-gradient-46" cx="315.56" cy="99.86" r="5.6" xlink:href="#radial-gradient"/><radialGradient id="radial-gradient-47" cx="299.33" cy="167.64" r="5.6" xlink:href="#radial-gradient"/><radialGradient id="radial-gradient-48" cx="178.21" cy="50.51" r="5.6" xlink:href="#radial-gradient"/><radialGradient id="radial-gradient-49" cx="463.24" cy="315.33" r="153.36" gradientTransform="translate(-126.57 -268.92) rotate(17)" xlink:href="#radial-gradient-7"/><radialGradient id="radial-gradient-50" cx="463.24" cy="315.33" r="153.36" gradientTransform="translate(-126.57 -268.92) rotate(17)" xlink:href="#radial-gradient-7"/><radialGradient id="radial-gradient-51" cx="463.24" cy="315.33" r="153.36" gradientTransform="translate(-126.57 -268.92) rotate(17)" xlink:href="#radial-gradient-7"/><radialGradient id="radial-gradient-52" cx="463.24" cy="315.33" r="153.36" gradientTransform="translate(-126.57 -268.92) rotate(17)" xlink:href="#radial-gradient-7"/><radialGradient id="radial-gradient-53" cx="463.24" cy="315.33" r="153.36" gradientTransform="translate(-126.57 -268.92) rotate(17)" xlink:href="#radial-gradient-7"/><radialGradient id="radial-gradient-54" cx="463.24" cy="315.33" r="153.36" gradientTransform="translate(-126.57 -268.92) rotate(17)" xlink:href="#radial-gradient-7"/><radialGradient id="radial-gradient-55" cx="-728.82" cy="406.72" r="12.13" xlink:href="#radial-gradient-7"/><radialGradient id="radial-gradient-56" cx="344.49" cy="41.14" r="3.19" xlink:href="#radial-gradient"/><radialGradient id="radial-gradient-57" cx="404.96" cy="45.26" r="5.33" xlink:href="#radial-gradient"/><radialGradient id="radial-gradient-58" cx="-244.36" cy="-169.28" r="153.36" gradientTransform="translate(26.48 226.56) rotate(114.67)" xlink:href="#radial-gradient-7"/><radialGradient id="radial-gradient-59" cx="-193.47" cy="1076.66" r="12.13" gradientTransform="matrix(0.13, -0.99, 0.99, 0.13, -664.5, -289.14)" xlink:href="#radial-gradient-7"/><radialGradient id="radial-gradient-60" cx="-686.01" cy="745.87" r="193.48" gradientTransform="translate(-683.08 412.59) rotate(-160.18)" xlink:href="#radial-gradient-7"/><radialGradient id="radial-gradient-61" cx="506.86" cy="355.17" r="15.31" gradientTransform="translate(-227.15 -320.45) rotate(2.82)" xlink:href="#radial-gradient-7"/><radialGradient id="radial-gradient-62" cx="127.86" cy="654.75" r="193.48" gradientTransform="matrix(0.92, -0.39, 0.39, 0.92, 309.91, -191.92)" xlink:href="#radial-gradient-7"/><radialGradient id="radial-gradient-63" cx="-297.73" cy="204.42" r="15.31" gradientTransform="matrix(-0.76, 0.65, -0.65, -0.76, 476.82, 654.97)" xlink:href="#radial-gradient-7"/><radialGradient id="radial-gradient-64" cx="-958.09" cy="-193.87" r="193.47" gradientTransform="matrix(-0.81, 0.58, -0.58, -0.81, -510.9, 431.22)" xlink:href="#radial-gradient-7"/><radialGradient id="radial-gradient-65" cx="492.36" cy="1332.79" r="15.31" gradientTransform="translate(-854.94 -359.96) rotate(-52.58)" xlink:href="#radial-gradient-7"/><radialGradient id="radial-gradient-66" cx="-860.24" cy="418.38" r="11.94" xlink:href="#radial-gradient-7"/><radialGradient id="radial-gradient-67" cx="-50.92" cy="714.4" r="3.36" gradientTransform="matrix(0.5, 0.87, -0.87, 0.5, 700.1, 122.53)" xlink:href="#radial-gradient"/><radialGradient id="radial-gradient-68" cx="-17.47" cy="638.39" r="3.36" gradientTransform="matrix(0.5, 0.87, -0.87, 0.5, 700.1, 122.53)" xlink:href="#radial-gradient"/><radialGradient id="radial-gradient-69" cx="-54.91" cy="653.92" r="5.6" gradientTransform="matrix(0.5, 0.87, -0.87, 0.5, 700.1, 122.53)" xlink:href="#radial-gradient"/><radialGradient id="radial-gradient-70" cx="416.63" cy="961.16" r="153.36" gradientTransform="translate(871.12 -121.02) rotate(77.19)" xlink:href="#radial-gradient-7"/><radialGradient id="radial-gradient-71" cx="416.63" cy="961.16" r="153.36" gradientTransform="translate(871.12 -121.02) rotate(77.19)" xlink:href="#radial-gradient-7"/><radialGradient id="radial-gradient-72" cx="416.63" cy="961.16" r="153.36" gradientTransform="translate(871.12 -121.02) rotate(77.19)" xlink:href="#radial-gradient-7"/><radialGradient id="radial-gradient-73" cx="-495.46" cy="-197.12" r="12.13" gradientTransform="matrix(-0.5, -0.87, 0.87, -0.5, 8.37, -110.02)" xlink:href="#radial-gradient-7"/><radialGradient id="radial-gradient-74" cx="-671.87" cy="97.96" r="193.47" gradientTransform="matrix(-0.17, -0.98, 0.98, -0.17, 3.59, -265.87)" xlink:href="#radial-gradient-7"/><radialGradient id="radial-gradient-75" cx="303.94" cy="969.45" r="15.31" gradientTransform="translate(865.25 -234.11) rotate(63.01)" xlink:href="#radial-gradient-7"/><radialGradient id="radial-gradient-76" cx="180.79" cy="359.35" r="3.36" xlink:href="#radial-gradient"/><radialGradient id="radial-gradient-77" cx="214.25" cy="283.35" r="3.36" xlink:href="#radial-gradient"/><radialGradient id="radial-gradient-78" cx="513.49" cy="414.26" r="3.36" xlink:href="#radial-gradient"/><radialGradient id="radial-gradient-79" cx="532.17" cy="381.28" r="5.6" xlink:href="#radial-gradient"/><radialGradient id="radial-gradient-80" cx="297.93" cy="416.01" r="5.6" xlink:href="#radial-gradient"/><radialGradient id="radial-gradient-81" cx="176.81" cy="298.87" r="5.6" xlink:href="#radial-gradient"/><radialGradient id="radial-gradient-82" cx="534.52" cy="553.25" r="153.36" gradientTransform="translate(-126.57 -268.92) rotate(17)" xlink:href="#radial-gradient-7"/><radialGradient id="radial-gradient-83" cx="411.44" cy="518.09" r="153.36" gradientTransform="translate(-126.57 -268.92) rotate(17)" xlink:href="#radial-gradient-7"/><radialGradient id="radial-gradient-84" cx="534.52" cy="553.25" r="153.36" gradientTransform="translate(-126.57 -268.92) rotate(17)" xlink:href="#radial-gradient-7"/><radialGradient id="radial-gradient-85" cx="752.67" cy="521.12" r="153.36" gradientTransform="translate(-126.57 -268.92) rotate(17)" xlink:href="#radial-gradient-7"/><radialGradient id="radial-gradient-86" cx="534.52" cy="553.25" r="153.36" gradientTransform="translate(-126.57 -268.92) rotate(17)" xlink:href="#radial-gradient-7"/><radialGradient id="radial-gradient-87" cx="534.52" cy="553.25" r="153.36" gradientTransform="translate(-126.57 -268.92) rotate(17)" xlink:href="#radial-gradient-7"/><radialGradient id="radial-gradient-88" cx="-809.1" cy="260.07" r="12.13" xlink:href="#radial-gradient-7"/><radialGradient id="radial-gradient-89" cx="371.81" cy="388.28" r="3.49" xlink:href="#radial-gradient"/><radialGradient id="radial-gradient-90" cx="352.6" cy="469.07" r="3.49" xlink:href="#radial-gradient"/><radialGradient id="radial-gradient-91" cx="386.63" cy="447.05" r="5.82" xlink:href="#radial-gradient"/><radialGradient id="radial-gradient-92" cx="-524.06" cy="812.55" r="153.37" gradientTransform="translate(-293.98 1086.44) rotate(-173.38)" xlink:href="#radial-gradient-7"/><radialGradient id="radial-gradient-93" cx="-524.06" cy="812.55" r="153.36" gradientTransform="translate(-293.98 1086.44) rotate(-173.38)" xlink:href="#radial-gradient-7"/><radialGradient id="radial-gradient-94" cx="-922.44" cy="62.51" r="11.99" xlink:href="#radial-gradient-7"/><radialGradient id="radial-gradient-95" cx="144.44" cy="158.08" r="3.49" xlink:href="#radial-gradient"/><radialGradient id="radial-gradient-96" cx="174.33" cy="254.49" r="3.49" xlink:href="#radial-gradient"/><radialGradient id="radial-gradient-97" cx="179.18" cy="218.4" r="5.82" xlink:href="#radial-gradient"/><radialGradient id="radial-gradient-98" cx="-322.25" cy="1005.18" r="153.37" gradientTransform="translate(-293.98 1086.44) rotate(-173.38)" xlink:href="#radial-gradient-7"/><radialGradient id="radial-gradient-99" cx="-291.65" cy="1015.79" r="153.36" gradientTransform="translate(-293.98 1086.44) rotate(-173.38)" xlink:href="#radial-gradient-7"/><radialGradient id="radial-gradient-100" cx="-695.07" cy="292.71" r="11.99" xlink:href="#radial-gradient-7"/><radialGradient id="radial-gradient-101" cx="399.29" cy="100.87" r="3.49" xlink:href="#radial-gradient"/><radialGradient id="radial-gradient-102" cx="451.21" cy="221.93" r="3.49" xlink:href="#radial-gradient"/><radialGradient id="radial-gradient-103" cx="-1031.12" cy="285.13" r="5.82" gradientTransform="translate(-545.88 485.04) rotate(180)" gradientUnits="userSpaceOnUse"><stop offset="0.06" stop-color="#66b0d8"/><stop offset="1" stop-color="#3f1f7d"/></radialGradient><radialGradient id="radial-gradient-104" cx="-507.76" cy="1104.12" r="153.37" gradientTransform="translate(-293.98 1086.44) rotate(-173.38)" xlink:href="#radial-gradient-7"/><radialGradient id="radial-gradient-105" cx="-593.54" cy="1069.42" r="153.37" gradientTransform="translate(-293.98 1086.44) rotate(-173.38)" xlink:href="#radial-gradient-7"/><radialGradient id="radial-gradient-106" cx="-1021.05" cy="309.65" r="11.99" xlink:href="#radial-gradient-7"/><radialGradient id="radial-gradient-107" cx="-780.6" cy="225.56" r="11.94" xlink:href="#radial-gradient-7"/><radialGradient id="radial-gradient-108" cx="42.22" cy="385.36" r="3.36" xlink:href="#radial-gradient"/><radialGradient id="radial-gradient-109" cx="-637.07" cy="158.06" r="12.13" xlink:href="#radial-gradient-7"/><radialGradient id="radial-gradient-110" cx="-608.57" cy="123.55" r="11.94" xlink:href="#radial-gradient-7"/><radialGradient id="radial-gradient-111" cx="502.73" cy="707.39" r="153.36" gradientTransform="translate(-126.57 -268.92) rotate(17)" xlink:href="#radial-gradient-7"/><radialGradient id="radial-gradient-112" cx="177.09" cy="448.14" r="3.49" xlink:href="#radial-gradient"/><radialGradient id="radial-gradient-113" cx="-757" cy="58.91" r="5.82" xlink:href="#radial-gradient-103"/><radialGradient id="radial-gradient-114" cx="-347.31" cy="813.12" r="153.36" gradientTransform="translate(-293.98 1086.44) rotate(-173.38)" xlink:href="#radial-gradient-7"/><radialGradient id="radial-gradient-115" cx="-783.36" cy="31.91" r="11.94" xlink:href="#radial-gradient-7"/><radialGradient id="radial-gradient-116" cx="548.04" cy="252.74" r="3.36" xlink:href="#radial-gradient"/><radialGradient id="radial-gradient-117" cx="-1112.6" cy="265.28" r="5.6" xlink:href="#radial-gradient-103"/><radialGradient id="radial-gradient-118" cx="522.87" cy="324.11" r="5.6" xlink:href="#radial-gradient"/><radialGradient id="radial-gradient-119" cx="703.89" cy="179" r="3.52" xlink:href="#radial-gradient"/><radialGradient id="radial-gradient-120" cx="694.12" cy="261.46" r="3.52" xlink:href="#radial-gradient"/><radialGradient id="radial-gradient-121" cx="662.52" cy="373.02" r="3.52" xlink:href="#radial-gradient"/><radialGradient id="radial-gradient-122" cx="654.29" cy="410.02" r="5.86" xlink:href="#radial-gradient"/><radialGradient id="radial-gradient-123" cx="649.99" cy="340.45" r="5.86" xlink:href="#radial-gradient"/><radialGradient id="radial-gradient-124" cx="725.38" cy="235.67" r="5.86" xlink:href="#radial-gradient"/><radialGradient id="radial-gradient-125" cx="-1267.58" cy="166.97" r="153.36" xlink:href="#radial-gradient-7"/><radialGradient id="radial-gradient-126" cx="-1267.57" cy="166.97" r="153.36" xlink:href="#radial-gradient-7"/><radialGradient id="radial-gradient-127" cx="-1267.58" cy="166.97" r="153.36" xlink:href="#radial-gradient-7"/><radialGradient id="radial-gradient-128" cx="-1267.57" cy="166.97" r="153.36" xlink:href="#radial-gradient-7"/><radialGradient id="radial-gradient-129" cx="-1192.89" cy="348.35" r="153.36" xlink:href="#radial-gradient-7"/><radialGradient id="radial-gradient-130" cx="-1192.88" cy="348.35" r="153.36" xlink:href="#radial-gradient-7"/><radialGradient id="radial-gradient-131" cx="-1257.57" cy="271.59" r="12.03" xlink:href="#radial-gradient-7"/><radialGradient id="radial-gradient-132" cx="-1212.93" cy="45.66" r="12.34" xlink:href="#radial-gradient-7"/><radialGradient id="radial-gradient-133" cx="714.35" cy="409.24" r="3.36" xlink:href="#radial-gradient"/><radialGradient id="radial-gradient-134" cx="733.03" cy="376.27" r="5.6" xlink:href="#radial-gradient"/><radialGradient id="radial-gradient-135" cx="943.28" cy="457.59" r="153.36" gradientTransform="translate(-126.57 -268.92) rotate(17)" xlink:href="#radial-gradient-7"/><radialGradient id="radial-gradient-136" cx="723.73" cy="319.1" r="5.6" xlink:href="#radial-gradient"/><radialGradient id="radial-gradient-137" cx="738.48" cy="356.55" r="153.36" gradientTransform="translate(-126.57 -268.92) rotate(17)" xlink:href="#radial-gradient-7"/><radialGradient id="radial-gradient-138" cx="722.76" cy="399.6" r="153.36" gradientTransform="translate(-126.57 -268.92) rotate(17)" xlink:href="#radial-gradient-7"/><radialGradient id="radial-gradient-139" cx="738.48" cy="356.55" r="153.36" gradientTransform="translate(-126.57 -268.92) rotate(17)" xlink:href="#radial-gradient-7"/><radialGradient id="radial-gradient-140" cx="738.48" cy="356.55" r="153.36" gradientTransform="translate(-126.57 -268.92) rotate(17)" xlink:href="#radial-gradient-7"/><radialGradient id="radial-gradient-141" cx="-1111.4" cy="298.48" r="11.94" xlink:href="#radial-gradient-7"/><radialGradient id="radial-gradient-142" cx="660.62" cy="122.08" r="4.39" xlink:href="#radial-gradient"/><radialGradient id="radial-gradient-143" cx="-1230.86" cy="405.97" r="7.31" xlink:href="#radial-gradient-103"/><radialGradient id="radial-gradient-144" cx="789.92" cy="215.41" r="200.04" gradientTransform="translate(-126.57 -268.92) rotate(17)" xlink:href="#radial-gradient-7"/><radialGradient id="radial-gradient-145" cx="789.92" cy="215.41" r="200.04" gradientTransform="translate(-126.57 -268.92) rotate(17)" xlink:href="#radial-gradient-7"/><radialGradient id="radial-gradient-146" cx="789.92" cy="215.41" r="200.04" gradientTransform="translate(-126.57 -268.92) rotate(17)" xlink:href="#radial-gradient-7"/><radialGradient id="radial-gradient-147" cx="-1229.3" cy="449.28" r="15.57" xlink:href="#radial-gradient-7"/></defs><g class="cls-2"><g id="Слой_2" data-name="Слой 2"><g id="BACKGROUND2"><g class="cls-3"><path class="cls-4" d="M577.72,368.91a12.41,12.41,0,0,0-1.24-2.27,12,12,0,0,0-2.28-1.25,11.82,11.82,0,0,0,2.28-1.24,12.41,12.41,0,0,0,1.24-2.27,4.59,4.59,0,0,0,3.52,3.51,12,12,0,0,0-2.28,1.25A11.81,11.81,0,0,0,577.72,368.91Z" transform="translate(-25.85 -18)"/><path class="cls-5" d="M568,451.37a12.41,12.41,0,0,0-1.24-2.27,11.82,11.82,0,0,0-2.28-1.24,4.58,4.58,0,0,0,3.52-3.52,11.82,11.82,0,0,0,1.24,2.28,12.41,12.41,0,0,0,2.27,1.24,4.59,4.59,0,0,0-3.51,3.51Z" transform="translate(-25.85 -18)"/><path class="cls-6" d="M461.66,381.55a4.62,4.62,0,0,0-3.52-3.52,11.52,11.52,0,0,0,2.27-1.24,12,12,0,0,0,1.25-2.27,4.59,4.59,0,0,0,3.51,3.51,12.41,12.41,0,0,0-2.27,1.24A11.82,11.82,0,0,0,461.66,381.55Z" transform="translate(-25.85 -18)"/><path class="cls-7" d="M453.44,420.89a19.55,19.55,0,0,0-2.08-3.79,19.94,19.94,0,0,0-3.79-2.07,19.94,19.94,0,0,0,3.79-2.07,19.84,19.84,0,0,0,2.08-3.79,19.66,19.66,0,0,0,2.07,3.79A19.94,19.94,0,0,0,459.3,415a19.94,19.94,0,0,0-3.79,2.07A19.37,19.37,0,0,0,453.44,420.89Z" transform="translate(-25.85 -18)"/><path class="cls-8" d="M449.14,351.32a19.84,19.84,0,0,0-2.08-3.79,19.93,19.93,0,0,0-3.78-2.07,19.93,19.93,0,0,0,3.78-2.07,19.55,19.55,0,0,0,2.08-3.79,19.94,19.94,0,0,0,2.07,3.79,19.94,19.94,0,0,0,3.79,2.07,19.94,19.94,0,0,0-3.79,2.07A20.25,20.25,0,0,0,449.14,351.32Z" transform="translate(-25.85 -18)"/><path class="cls-9" d="M599.21,427.93a19.37,19.37,0,0,0-2.07-3.79,19.55,19.55,0,0,0-3.79-2.08,19.37,19.37,0,0,0,3.79-2.07,19.37,19.37,0,0,0,2.07-3.79,19.55,19.55,0,0,0,2.08,3.79,19.37,19.37,0,0,0,3.79,2.07,19.55,19.55,0,0,0-3.79,2.08A19.55,19.55,0,0,0,599.21,427.93Z" transform="translate(-25.85 -18)"/><path class="cls-10" d="M467,355.66a2,2,0,1,0,2,2A2,2,0,0,0,467,355.66Z" transform="translate(-25.85 -18)"/><path class="cls-11" d="M498.93,463.12a6.47,6.47,0,0,1-.69,1.27,6.74,6.74,0,0,1-1.26.69,2.56,2.56,0,0,1,1.95,1.95,6.74,6.74,0,0,1,.69-1.26,6.47,6.47,0,0,1,1.27-.69,2.55,2.55,0,0,1-2-2Z" transform="translate(-25.85 -18)"/><path class="cls-12" d="M445,425.6a2.55,2.55,0,0,1-1.95,2,6.46,6.46,0,0,1,1.26.69,6.74,6.74,0,0,1,.69,1.26,6.74,6.74,0,0,1,.69-1.26,6.19,6.19,0,0,1,1.26-.69,6.74,6.74,0,0,1-1.26-.69A7.07,7.07,0,0,1,445,425.6Z" transform="translate(-25.85 -18)"/><path class="cls-13" d="M471.88,398.93a2.55,2.55,0,0,1-2,2,6.47,6.47,0,0,1,1.27.69,6.74,6.74,0,0,1,.69,1.26,2.56,2.56,0,0,1,1.95-1.95,6.74,6.74,0,0,1-1.26-.69A6.47,6.47,0,0,1,471.88,398.93Z" transform="translate(-25.85 -18)"/><path class="cls-14" d="M593.72,339.23a2.56,2.56,0,0,1-2,1.95,6.74,6.74,0,0,1,1.26.69,6.47,6.47,0,0,1,.69,1.27,2.55,2.55,0,0,1,2-2,6.47,6.47,0,0,1-1.27-.69A6.74,6.74,0,0,1,593.72,339.23Z" transform="translate(-25.85 -18)"/><path class="cls-15" d="M571.08,427.54a6.35,6.35,0,0,1-.7,1.26,6.74,6.74,0,0,1-1.26.69,6.74,6.74,0,0,1,1.26.69,6.35,6.35,0,0,1,.7,1.26,6.19,6.19,0,0,1,.69-1.26,6.74,6.74,0,0,1,1.26-.69,6.74,6.74,0,0,1-1.26-.69A6.19,6.19,0,0,1,571.08,427.54Z" transform="translate(-25.85 -18)"/><path class="cls-16" d="M582.69,398.53a.66.66,0,0,1,.66-.65.65.65,0,0,1,.65.65.66.66,0,0,1-.65.66A.67.67,0,0,1,582.69,398.53Zm-5.22,12a1.31,1.31,0,1,0,0-2.61,1.31,1.31,0,0,0,0,2.61Zm-2.61-15.66a2.62,2.62,0,1,0-2.61-2.61A2.61,2.61,0,0,0,574.86,394.84Zm22.63-3a1.31,1.31,0,1,0-1.31-1.31A1.3,1.3,0,0,0,597.49,391.79Z" transform="translate(-25.85 -18)"/><path class="cls-17" d="M468.39,445.28a.65.65,0,0,1-.59.71.65.65,0,1,1-.11-1.3A.64.64,0,0,1,468.39,445.28Zm4.19-12.36a1.3,1.3,0,1,0,1.41,1.19A1.3,1.3,0,0,0,472.58,432.92Zm3.93,15.38a2.61,2.61,0,1,0,2.82,2.38A2.62,2.62,0,0,0,476.51,448.3Zm-22.28,5a1.3,1.3,0,1,0,1.41,1.19A1.3,1.3,0,0,0,454.23,453.26Z" transform="translate(-25.85 -18)"/><path class="cls-18" d="M572.91,47.68a11.52,11.52,0,0,0-1.24-2.27,12,12,0,0,0-2.28-1.25,11.82,11.82,0,0,0,2.28-1.24,11.81,11.81,0,0,0,1.24-2.27,12.41,12.41,0,0,0,1.24,2.27,11.82,11.82,0,0,0,2.28,1.24,12,12,0,0,0-2.28,1.25A12.09,12.09,0,0,0,572.91,47.68Z" transform="translate(-25.85 -18)"/><path class="cls-19" d="M563.14,130.14a12.41,12.41,0,0,0-1.24-2.27,11.82,11.82,0,0,0-2.28-1.24,12.42,12.42,0,0,0,2.28-1.24,12.42,12.42,0,0,0,1.24-2.28,11.82,11.82,0,0,0,1.24,2.28,12.42,12.42,0,0,0,2.28,1.24,11.82,11.82,0,0,0-2.28,1.24A11.81,11.81,0,0,0,563.14,130.14Z" transform="translate(-25.85 -18)"/><path class="cls-20" d="M456.85,60.32A12.42,12.42,0,0,0,455.61,58a12.42,12.42,0,0,0-2.28-1.24,11.82,11.82,0,0,0,2.28-1.24,12.42,12.42,0,0,0,1.24-2.28,11.82,11.82,0,0,0,1.24,2.28,11.81,11.81,0,0,0,2.27,1.24A12.41,12.41,0,0,0,458.09,58,11.82,11.82,0,0,0,456.85,60.32Z" transform="translate(-25.85 -18)"/><path class="cls-21" d="M448.63,99.66a19.55,19.55,0,0,0-2.08-3.79,19.93,19.93,0,0,0-3.78-2.07,19.93,19.93,0,0,0,3.78-2.07,19.84,19.84,0,0,0,2.08-3.79,20.25,20.25,0,0,0,2.07,3.79,19.94,19.94,0,0,0,3.79,2.07,19.94,19.94,0,0,0-3.79,2.07A19.94,19.94,0,0,0,448.63,99.66Z" transform="translate(-25.85 -18)"/><path class="cls-22" d="M444.33,30.09a20.25,20.25,0,0,0-2.07-3.79,20.25,20.25,0,0,0-3.79-2.07,20.25,20.25,0,0,0,3.79-2.07,19.94,19.94,0,0,0,2.07-3.79,19.94,19.94,0,0,0,2.07,3.79,19.94,19.94,0,0,0,3.79,2.07,19.94,19.94,0,0,0-3.79,2.07A20.25,20.25,0,0,0,444.33,30.09Z" transform="translate(-25.85 -18)"/><path class="cls-23" d="M594.41,106.69a19.54,19.54,0,0,0-2.08-3.78,19.54,19.54,0,0,0-3.78-2.08,19.36,19.36,0,0,0,3.78-2.07A19.55,19.55,0,0,0,594.41,95a19.37,19.37,0,0,0,2.07,3.79,19.37,19.37,0,0,0,3.79,2.07,19.55,19.55,0,0,0-3.79,2.08A19.36,19.36,0,0,0,594.41,106.69Z" transform="translate(-25.85 -18)"/><path class="cls-24" d="M462.23,34.43a2,2,0,1,0,2,2A2,2,0,0,0,462.23,34.43Z" transform="translate(-25.85 -18)"/><path class="cls-25" d="M494.12,141.89a6.47,6.47,0,0,1-.69,1.27,6.74,6.74,0,0,1-1.26.69,2.56,2.56,0,0,1,1.95,2,6.35,6.35,0,0,1,.7-1.26,6.19,6.19,0,0,1,1.26-.69,6.74,6.74,0,0,1-1.26-.69A6.65,6.65,0,0,1,494.12,141.89Z" transform="translate(-25.85 -18)"/><path class="cls-26" d="M440.19,104.37a7.07,7.07,0,0,1-.69,1.27,6.74,6.74,0,0,1-1.26.69,6.19,6.19,0,0,1,1.26.69,6.74,6.74,0,0,1,.69,1.26,6.74,6.74,0,0,1,.69-1.26,6.19,6.19,0,0,1,1.26-.69,6.74,6.74,0,0,1-1.26-.69A7.07,7.07,0,0,1,440.19,104.37Z" transform="translate(-25.85 -18)"/><path class="cls-27" d="M467.07,77.7a7.07,7.07,0,0,1-.69,1.27,7.07,7.07,0,0,1-1.27.69,6.47,6.47,0,0,1,1.27.69,6.74,6.74,0,0,1,.69,1.26,6.19,6.19,0,0,1,.69-1.26,6.19,6.19,0,0,1,1.26-.69,6.74,6.74,0,0,1-1.26-.69A6.47,6.47,0,0,1,467.07,77.7Z" transform="translate(-25.85 -18)"/><path class="cls-28" d="M588.91,18a6.19,6.19,0,0,1-.69,1.26A6.19,6.19,0,0,1,587,20a6.74,6.74,0,0,1,1.26.69,6.47,6.47,0,0,1,.69,1.27,7.07,7.07,0,0,1,.69-1.27,7.07,7.07,0,0,1,1.27-.69,6.47,6.47,0,0,1-1.27-.69A6.74,6.74,0,0,1,588.91,18Z" transform="translate(-25.85 -18)"/><path class="cls-29" d="M566.27,106.31a7.07,7.07,0,0,1-.69,1.26,7.07,7.07,0,0,1-1.27.69,7.07,7.07,0,0,1,1.27.69,6.74,6.74,0,0,1,.69,1.26A6.19,6.19,0,0,1,567,109a6.74,6.74,0,0,1,1.26-.69,6.74,6.74,0,0,1-1.26-.69A6.46,6.46,0,0,1,566.27,106.31Z" transform="translate(-25.85 -18)"/><path class="cls-30" d="M577.88,77.3a.66.66,0,0,1,.66-.65.65.65,0,0,1,.65.65.66.66,0,0,1-.65.66A.67.67,0,0,1,577.88,77.3Zm-5.22,12a1.31,1.31,0,1,0,0-2.61,1.31,1.31,0,0,0,0,2.61ZM570.05,73.6A2.61,2.61,0,1,0,567.44,71,2.6,2.6,0,0,0,570.05,73.6Zm22.63-3a1.31,1.31,0,1,0-1.31-1.31A1.3,1.3,0,0,0,592.68,70.56Z" transform="translate(-25.85 -18)"/><path class="cls-31" d="M463.59,124.05a.66.66,0,1,1-1.31.11.65.65,0,0,1,.6-.7A.66.66,0,0,1,463.59,124.05Zm4.18-12.36a1.3,1.3,0,1,0,1.41,1.19A1.3,1.3,0,0,0,467.77,111.69Zm3.93,15.38a2.61,2.61,0,1,0,2.82,2.38A2.63,2.63,0,0,0,471.7,127.07Zm-22.28,5a1.3,1.3,0,1,0,1.41,1.19A1.3,1.3,0,0,0,449.42,132Z" transform="translate(-25.85 -18)"/><path class="cls-32" d="M46.7,199.71a12,12,0,0,0-1.25-2.27,11.81,11.81,0,0,0-2.27-1.24A12,12,0,0,0,45.45,195a12,12,0,0,0,1.25-2.27A11.81,11.81,0,0,0,47.94,195a12,12,0,0,0,2.27,1.25,11.81,11.81,0,0,0-2.27,1.24A11.81,11.81,0,0,0,46.7,199.71Z" transform="translate(-25.85 -18)"/><path class="cls-33" d="M36.92,282.18a11.82,11.82,0,0,0-1.24-2.28,11.81,11.81,0,0,0-2.27-1.24,12.41,12.41,0,0,0,2.27-1.24,11.82,11.82,0,0,0,1.24-2.28,12,12,0,0,0,1.25,2.28,12.41,12.41,0,0,0,2.27,1.24,11.81,11.81,0,0,0-2.27,1.24A12,12,0,0,0,36.92,282.18Z" transform="translate(-25.85 -18)"/><path class="cls-34" d="M54,69.83a12.41,12.41,0,0,0-1.24-2.27,11.82,11.82,0,0,0-2.28-1.24,12.42,12.42,0,0,0,2.28-1.24A12.42,12.42,0,0,0,54,62.8a11.82,11.82,0,0,0,1.24,2.28,12.41,12.41,0,0,0,2.27,1.24,11.81,11.81,0,0,0-2.27,1.24A11.81,11.81,0,0,0,54,69.83Z" transform="translate(-25.85 -18)"/><path class="cls-35" d="M45.76,109.18a19.94,19.94,0,0,0-2.07-3.79,20.25,20.25,0,0,0-3.79-2.07,20.25,20.25,0,0,0,3.79-2.07,20.25,20.25,0,0,0,2.07-3.79,20.25,20.25,0,0,0,2.07,3.79,19.94,19.94,0,0,0,3.79,2.07,19.94,19.94,0,0,0-3.79,2.07A19.94,19.94,0,0,0,45.76,109.18Z" transform="translate(-25.85 -18)"/><path class="cls-36" d="M41.46,39.61a20.25,20.25,0,0,0-2.07-3.79,20.25,20.25,0,0,0-3.79-2.07,20.25,20.25,0,0,0,3.79-2.07,20.25,20.25,0,0,0,2.07-3.79,20.25,20.25,0,0,0,2.07,3.79,19.94,19.94,0,0,0,3.79,2.07,19.94,19.94,0,0,0-3.79,2.07A20.25,20.25,0,0,0,41.46,39.61Z" transform="translate(-25.85 -18)"/><path class="cls-37" d="M68.19,258.73a19.94,19.94,0,0,0-2.07-3.79,19.37,19.37,0,0,0-3.79-2.07,19.55,19.55,0,0,0,3.79-2.08A19.94,19.94,0,0,0,68.19,247a19.94,19.94,0,0,0,2.07,3.79,19.84,19.84,0,0,0,3.79,2.08,19.66,19.66,0,0,0-3.79,2.07A19.94,19.94,0,0,0,68.19,258.73Z" transform="translate(-25.85 -18)"/><path class="cls-38" d="M59.36,44a2,2,0,1,0,2,2A2,2,0,0,0,59.36,44Z" transform="translate(-25.85 -18)"/><path class="cls-39" d="M91.26,151.41a6.74,6.74,0,0,1-.69,1.26,6.47,6.47,0,0,1-1.27.69,7.07,7.07,0,0,1,1.27.69,7.07,7.07,0,0,1,.69,1.27,6.47,6.47,0,0,1,.69-1.27,6.74,6.74,0,0,1,1.26-.69,6.19,6.19,0,0,1-1.26-.69A6.19,6.19,0,0,1,91.26,151.41Z" transform="translate(-25.85 -18)"/><path class="cls-40" d="M37.32,113.89a6.19,6.19,0,0,1-.69,1.26,6.19,6.19,0,0,1-1.26.69,6.74,6.74,0,0,1,1.26.69,6.47,6.47,0,0,1,.69,1.27,7.07,7.07,0,0,1,.69-1.27,7.07,7.07,0,0,1,1.26-.69,6.46,6.46,0,0,1-1.26-.69A6.74,6.74,0,0,1,37.32,113.89Z" transform="translate(-25.85 -18)"/><path class="cls-41" d="M64.2,87.22a6.74,6.74,0,0,1-.69,1.26,6.65,6.65,0,0,1-1.27.7,6.47,6.47,0,0,1,1.27.69,6.74,6.74,0,0,1,.69,1.26,6.19,6.19,0,0,1,.69-1.26,6.19,6.19,0,0,1,1.26-.69,6.35,6.35,0,0,1-1.26-.7A6.19,6.19,0,0,1,64.2,87.22Z" transform="translate(-25.85 -18)"/><path class="cls-42" d="M62.7,170a6.74,6.74,0,0,1-.69,1.26,6.46,6.46,0,0,1-1.26.69,7.07,7.07,0,0,1,1.26.69,7.07,7.07,0,0,1,.69,1.27,6.47,6.47,0,0,1,.69-1.27,6.74,6.74,0,0,1,1.26-.69,6.19,6.19,0,0,1-1.26-.69A6.19,6.19,0,0,1,62.7,170Z" transform="translate(-25.85 -18)"/><path class="cls-43" d="M40.05,258.34a6.19,6.19,0,0,1-.69,1.26,6.74,6.74,0,0,1-1.26.69,6.74,6.74,0,0,1,1.26.69,6.46,6.46,0,0,1,.69,1.26,7.07,7.07,0,0,1,.69-1.26,7.07,7.07,0,0,1,1.26-.69,7.07,7.07,0,0,1-1.26-.69A6.74,6.74,0,0,1,40.05,258.34Z" transform="translate(-25.85 -18)"/><path class="cls-44" d="M51.67,229.33a.65.65,0,0,1,.65-.65.66.66,0,0,1,.66.65.67.67,0,0,1-.66.66A.66.66,0,0,1,51.67,229.33Zm-5.22,12A1.31,1.31,0,1,0,45.14,240,1.31,1.31,0,0,0,46.45,241.3Zm-2.61-15.66A2.61,2.61,0,1,0,41.23,223,2.61,2.61,0,0,0,43.84,225.64Zm22.62-3a1.31,1.31,0,1,0-1.3-1.3A1.31,1.31,0,0,0,66.46,222.59Z" transform="translate(-25.85 -18)"/><path class="cls-45" d="M60.72,133.57a.66.66,0,0,1-.6.71.65.65,0,0,1-.7-.6A.64.64,0,0,1,60,133,.65.65,0,0,1,60.72,133.57Zm4.18-12.36a1.3,1.3,0,1,0,1.41,1.19A1.3,1.3,0,0,0,64.9,121.21Zm3.93,15.38A2.61,2.61,0,1,0,71.65,139,2.62,2.62,0,0,0,68.83,136.59Zm-22.28,5A1.3,1.3,0,1,0,48,142.74,1.3,1.3,0,0,0,46.55,141.55Z" transform="translate(-25.85 -18)"/><path class="cls-46" d="M183.22,107.62a11.65,11.65,0,0,0,.53,2.54,11.77,11.77,0,0,0,1.81,1.85,11.65,11.65,0,0,0-2.54.53,11.77,11.77,0,0,0-1.85,1.81,11.65,11.65,0,0,0-.53-2.54,11.77,11.77,0,0,0-1.81-1.85,11.65,11.65,0,0,0,2.54-.53A11.77,11.77,0,0,0,183.22,107.62Z" transform="translate(-25.85 -18)"/><path class="cls-47" d="M216.68,31.62a12.11,12.11,0,0,0,.52,2.54A12.24,12.24,0,0,0,219,36a12.05,12.05,0,0,0-2.53.52,12.42,12.42,0,0,0-1.86,1.81,12.05,12.05,0,0,0-.52-2.53A12,12,0,0,0,212.29,34a12.11,12.11,0,0,0,2.54-.52A11.77,11.77,0,0,0,216.68,31.62Z" transform="translate(-25.85 -18)"/><path class="cls-48" d="M297.91,129.48a12.05,12.05,0,0,0,.52,2.53,12.42,12.42,0,0,0,1.81,1.86,12.05,12.05,0,0,0-2.53.52,11.5,11.5,0,0,0-1.86,1.81,12.11,12.11,0,0,0-.52-2.54,11.77,11.77,0,0,0-1.81-1.85,12.24,12.24,0,0,0,2.54-.52A12.24,12.24,0,0,0,297.91,129.48Z" transform="translate(-25.85 -18)"/><path class="cls-49" d="M317.28,94.26a19.52,19.52,0,0,0,.87,4.22,19.71,19.71,0,0,0,3,3.09,19.75,19.75,0,0,0-4.23.88,19.28,19.28,0,0,0-3.09,3,19.75,19.75,0,0,0-.88-4.23,19.32,19.32,0,0,0-3-3.09,19.87,19.87,0,0,0,4.23-.88A19.76,19.76,0,0,0,317.28,94.26Z" transform="translate(-25.85 -18)"/><path class="cls-50" d="M301.05,162a19.59,19.59,0,0,0,.87,4.23,20.18,20.18,0,0,0,3,3.09,20.23,20.23,0,0,0-4.23.87,19.71,19.71,0,0,0-3.09,3,19.75,19.75,0,0,0-.88-4.23,19.76,19.76,0,0,0-3-3.09,20.35,20.35,0,0,0,4.23-.87A20.18,20.18,0,0,0,301.05,162Z" transform="translate(-25.85 -18)"/><path class="cls-51" d="M179.92,44.9a19.75,19.75,0,0,0,.88,4.23,19.72,19.72,0,0,0,3,3.09,20.23,20.23,0,0,0-4.23.87,19.71,19.71,0,0,0-3.09,3,19.87,19.87,0,0,0-.88-4.23,19.76,19.76,0,0,0-3-3.09,19.52,19.52,0,0,0,4.22-.87A19.71,19.71,0,0,0,179.92,44.9Z" transform="translate(-25.85 -18)"/><path class="cls-52" d="M285.19,152.66a2,2,0,1,0-1.3-2.45A2,2,0,0,0,285.19,152.66Z" transform="translate(-25.85 -18)"/><path class="cls-53" d="M286.11,40.56a7.1,7.1,0,0,1,1-1,6.57,6.57,0,0,1,1.41-.29,6.6,6.6,0,0,1-1-1,6.57,6.57,0,0,1-.29-1.41,6.56,6.56,0,0,1-1,1,7.26,7.26,0,0,1-1.41.29,6.6,6.6,0,0,1,1,1A6.39,6.39,0,0,1,286.11,40.56Z" transform="translate(-25.85 -18)"/><path class="cls-54" d="M326.72,92.21a6.6,6.6,0,0,1,1-1,6.57,6.57,0,0,1,1.41-.29,6.56,6.56,0,0,1-1-1,7.26,7.26,0,0,1-.29-1.41,6.56,6.56,0,0,1-1,1,7.06,7.06,0,0,1-1.4.29,6.6,6.6,0,0,1,1,1A6.39,6.39,0,0,1,326.72,92.21Z" transform="translate(-25.85 -18)"/><path class="cls-55" d="M293.22,109.86a6.56,6.56,0,0,1,1-1,7.26,7.26,0,0,1,1.41-.29,6.56,6.56,0,0,1-1-1,7.06,7.06,0,0,1-.29-1.4,6.6,6.6,0,0,1-1,1,6.39,6.39,0,0,1-1.4.29,6.6,6.6,0,0,1,1,1A6.57,6.57,0,0,1,293.22,109.86Z" transform="translate(-25.85 -18)"/><path class="cls-56" d="M159.24,131.33a6.56,6.56,0,0,1,1-1,6.57,6.57,0,0,1,1.41-.29,6.17,6.17,0,0,1-1-1,6.74,6.74,0,0,1-.3-1.41,6.85,6.85,0,0,1-1,1,6.57,6.57,0,0,1-1.41.29,6.6,6.6,0,0,1,1,1A6.57,6.57,0,0,1,159.24,131.33Z" transform="translate(-25.85 -18)"/><path class="cls-57" d="M206.72,53.5a6.17,6.17,0,0,1,1-1,6.74,6.74,0,0,1,1.41-.3,6.85,6.85,0,0,1-1-1,6.57,6.57,0,0,1-.29-1.41,6.6,6.6,0,0,1-1,1,6.45,6.45,0,0,1-1.41.29,6.56,6.56,0,0,1,1,1A6.57,6.57,0,0,1,206.72,53.5Z" transform="translate(-25.85 -18)"/><path class="cls-58" d="M187.13,77.84a.65.65,0,1,1-.43-.81A.65.65,0,0,1,187.13,77.84Zm8.49-9.91a1.3,1.3,0,1,0,.87,1.63A1.3,1.3,0,0,0,195.62,67.93Zm-2.08,15.74a2.61,2.61,0,1,0,1.73,3.26A2.61,2.61,0,0,0,193.54,83.67ZM171,80a1.31,1.31,0,1,0,.87,1.63A1.31,1.31,0,0,0,171,80Z" transform="translate(-25.85 -18)"/><path class="cls-59" d="M347.69,42.61a12.3,12.3,0,0,0-2.59.18A12.51,12.51,0,0,0,343,44.34a11.65,11.65,0,0,0-.18-2.59,11.87,11.87,0,0,0-1.54-2.07,11.73,11.73,0,0,0,2.58-.19A11.64,11.64,0,0,0,346,38a12.22,12.22,0,0,0,.18,2.58A12.08,12.08,0,0,0,347.69,42.61Z" transform="translate(-25.85 -18)"/><path class="cls-60" d="M410.29,47.71A19.55,19.55,0,0,0,406,48a19.63,19.63,0,0,0-3.46,2.58,19.71,19.71,0,0,0-.31-4.31,19.86,19.86,0,0,0-2.57-3.47,19.47,19.47,0,0,0,4.3-.3,19.41,19.41,0,0,0,3.47-2.58,19.55,19.55,0,0,0,.3,4.31A19.8,19.8,0,0,0,410.29,47.71Z" transform="translate(-25.85 -18)"/><path class="cls-61" d="M398.19,73.12a6.21,6.21,0,0,1,.86,1.15,6.35,6.35,0,0,1,.1,1.44,6.58,6.58,0,0,1,1.15-.86,6.35,6.35,0,0,1,1.44-.1,6.87,6.87,0,0,1-.86-1.16,6.92,6.92,0,0,1-.1-1.43,7.13,7.13,0,0,1-1.15.86A7,7,0,0,1,398.19,73.12Z" transform="translate(-25.85 -18)"/><path class="cls-62" d="M376.68,50.45a.65.65,0,1,1,.87-.32A.65.65,0,0,1,376.68,50.45Zm8.7,9.74a1.31,1.31,0,1,0-1.73.64A1.31,1.31,0,0,0,385.38,60.19ZM370.05,56a2.61,2.61,0,1,0-3.46,1.28A2.61,2.61,0,0,0,370.05,56Zm6.68-21.83a1.3,1.3,0,1,0-1.73.64A1.31,1.31,0,0,0,376.73,34.2Z" transform="translate(-25.85 -18)"/><path class="cls-63" d="M230.11,89a8.52,8.52,0,0,1-1.35,1.21,8.7,8.7,0,0,1-1.8.28,8.1,8.1,0,0,1,1.2,1.35,8.06,8.06,0,0,1,.28,1.8,8.27,8.27,0,0,1,1.36-1.2,8,8,0,0,1,1.8-.28,8.7,8.7,0,0,1-1.21-1.36A8.61,8.61,0,0,1,230.11,89Z" transform="translate(-25.85 -18)"/><path class="cls-64" d="M256.31,59.58a.82.82,0,0,1,1.55.56.81.81,0,0,1-1.05.49A.82.82,0,0,1,256.31,59.58ZM245,71.55a1.65,1.65,0,1,0,1.11-3.1,1.65,1.65,0,0,0-1.11,3.1Zm3.6-19.71a3.29,3.29,0,1,0-2-4.21A3.3,3.3,0,0,0,248.6,51.84Zm28.15,6.07a1.65,1.65,0,1,0-1-2.11A1.66,1.66,0,0,0,276.75,57.91Z" transform="translate(-25.85 -18)"/><path class="cls-65" d="M575.06,263.41a8.91,8.91,0,0,1,.17-1.81,8.46,8.46,0,0,1,1.13-1.43,8.23,8.23,0,0,1-1.81-.17,8.53,8.53,0,0,1-1.43-1.12,8.15,8.15,0,0,1-.17,1.8,8.12,8.12,0,0,1-1.12,1.43,8.83,8.83,0,0,1,1.8.17A8.46,8.46,0,0,1,575.06,263.41Z" transform="translate(-25.85 -18)"/><path class="cls-66" d="M576,302.81a.82.82,0,1,1-1.08-.43A.82.82,0,0,1,576,302.81Zm.12-16.46a1.64,1.64,0,1,0,2.16.86A1.64,1.64,0,0,0,576.11,286.35Zm10.8,16.86a3.3,3.3,0,1,0,4.33,1.73A3.31,3.31,0,0,0,586.91,303.21ZM562.19,318a1.65,1.65,0,1,0,2.16.87A1.65,1.65,0,0,0,562.19,318Z" transform="translate(-25.85 -18)"/><path class="cls-67" d="M509.36,101.67a8.07,8.07,0,0,1,.21,1.8,8.2,8.2,0,0,1-.78,1.64,3.21,3.21,0,0,1,3.43.57,8.69,8.69,0,0,1-.22-1.81,8.85,8.85,0,0,1,.79-1.63,3.21,3.21,0,0,1-3.43-.57Z" transform="translate(-25.85 -18)"/><path class="cls-68" d="M500,63.38a.82.82,0,0,1,.19-1.15.82.82,0,1,1,.95,1.34A.81.81,0,0,1,500,63.38Zm3.42,16.11a1.65,1.65,0,1,0-2.3-.38A1.65,1.65,0,0,0,503.41,79.49ZM489.24,65.34a3.3,3.3,0,1,0-4.6-.77A3.3,3.3,0,0,0,489.24,65.34Zm21-19.74a1.64,1.64,0,1,0-2.29-.38A1.64,1.64,0,0,0,510.21,45.6Z" transform="translate(-25.85 -18)"/><path class="cls-69" d="M310.1,66.55a.66.66,0,0,1,1.28.28.65.65,0,0,1-.78.5A.66.66,0,0,1,310.1,66.55Zm-7.62,10.6A1.3,1.3,0,1,0,303,74.6a1.3,1.3,0,0,0-.55,2.55Zm.74-15.86a2.61,2.61,0,1,0-2-3.1A2.61,2.61,0,0,0,303.22,61.29ZM326,63.07a1.3,1.3,0,1,0-1-1.55A1.31,1.31,0,0,0,326,63.07Z" transform="translate(-25.85 -18)"/><path class="cls-70" d="M58.34,432.69a11.7,11.7,0,0,0-1.94,1.72,11.67,11.67,0,0,0-.71,2.49A12.12,12.12,0,0,0,54,435a12.13,12.13,0,0,0-2.49-.71,11.53,11.53,0,0,0,1.94-1.71,11.67,11.67,0,0,0,.71-2.49A12.12,12.12,0,0,0,55.85,432,12,12,0,0,0,58.34,432.69Z" transform="translate(-25.85 -18)"/><path class="cls-71" d="M140.92,423.94a11.7,11.7,0,0,0-1.94,1.72,11.67,11.67,0,0,0-.71,2.49,11.7,11.7,0,0,0-1.72-1.94,11.67,11.67,0,0,0-2.49-.71,11.7,11.7,0,0,0,1.94-1.72,11.52,11.52,0,0,0,.71-2.49,11.7,11.7,0,0,0,1.72,1.94A11.52,11.52,0,0,0,140.92,423.94Z" transform="translate(-25.85 -18)"/><path class="cls-72" d="M111.12,398.65a19.85,19.85,0,0,0-3.23,2.86,19.88,19.88,0,0,0-1.19,4.16,19.75,19.75,0,0,0-2.86-3.24,20.12,20.12,0,0,0-4.15-1.18,20.25,20.25,0,0,0,3.24-2.86,20.12,20.12,0,0,0,1.18-4.15,19.37,19.37,0,0,0,2.86,3.23A19.49,19.49,0,0,0,111.12,398.65Z" transform="translate(-25.85 -18)"/><path class="cls-73" d="M167.67,488.63a7,7,0,0,1,1.39.4,6.71,6.71,0,0,1,.95,1.08,6.79,6.79,0,0,1,.39-1.39,7.18,7.18,0,0,1,1.08-1,6.58,6.58,0,0,1-1.38-.39,6.82,6.82,0,0,1-1-1.08,6.58,6.58,0,0,1-.39,1.38A6.24,6.24,0,0,1,167.67,488.63Z" transform="translate(-25.85 -18)"/><path class="cls-74" d="M25.85,423.67a6.58,6.58,0,0,1,1.38.39,6.41,6.41,0,0,1,1,1.08,6.58,6.58,0,0,1,.39-1.38,6.41,6.41,0,0,1,1.08-1,6.79,6.79,0,0,1-1.39-.39,6.71,6.71,0,0,1-.95-1.08,6.79,6.79,0,0,1-.39,1.39A6.71,6.71,0,0,1,25.85,423.67Z" transform="translate(-25.85 -18)"/><path class="cls-75" d="M117,426.18a6.58,6.58,0,0,1,1.38.39,6.41,6.41,0,0,1,1,1.08,6.79,6.79,0,0,1,.39-1.39,6.71,6.71,0,0,1,1.08-.95,6.79,6.79,0,0,1-1.39-.39,6.71,6.71,0,0,1-1-1.08,6.58,6.58,0,0,1-.39,1.38A6.41,6.41,0,0,1,117,426.18Z" transform="translate(-25.85 -18)"/><path class="cls-76" d="M86.12,421.28a.66.66,0,1,1,.49-.78A.65.65,0,0,1,86.12,421.28ZM99,423.72a1.31,1.31,0,1,0-1,1.56A1.31,1.31,0,0,0,99,423.72Zm-14.7,6a2.61,2.61,0,1,0-2,3.13A2.61,2.61,0,0,0,84.25,429.73Zm-8-21.38a1.31,1.31,0,1,0-1,1.56A1.3,1.3,0,0,0,76.27,408.35Z" transform="translate(-25.85 -18)"/><path class="cls-77" d="M97.78,464.14a8.32,8.32,0,0,1-1.72-.58,8.35,8.35,0,0,1-1.13-1.42,8.5,8.5,0,0,1-.59,1.72A8.37,8.37,0,0,1,92.93,465a8.52,8.52,0,0,1,1.72.58A8.35,8.35,0,0,1,95.78,467a8.32,8.32,0,0,1,.58-1.72A8.35,8.35,0,0,1,97.78,464.14Z" transform="translate(-25.85 -18)"/><path class="cls-78" d="M136.36,472.23a.82.82,0,1,1-.67.95A.82.82,0,0,1,136.36,472.23Zm-16-3.87a1.64,1.64,0,1,0,1.34-1.91A1.65,1.65,0,0,0,120.35,468.36Zm18.89-6.67a3.29,3.29,0,1,0,2.67-3.81A3.28,3.28,0,0,0,139.24,461.69ZM148,489.13a1.65,1.65,0,1,0,1.34-1.9A1.65,1.65,0,0,0,148,489.13Z" transform="translate(-25.85 -18)"/><path class="cls-79" d="M181.82,356a11.76,11.76,0,0,0,.53,2.54,11.77,11.77,0,0,0,1.81,1.85,12.11,12.11,0,0,0-2.54.52,12.42,12.42,0,0,0-1.86,1.81,12.05,12.05,0,0,0-.52-2.53,11.5,11.5,0,0,0-1.81-1.86,12.11,12.11,0,0,0,2.54-.52A12.24,12.24,0,0,0,181.82,356Z" transform="translate(-25.85 -18)"/><path class="cls-80" d="M215.28,280a12.11,12.11,0,0,0,.52,2.54,12.24,12.24,0,0,0,1.81,1.85,11.76,11.76,0,0,0-2.54.53,11.77,11.77,0,0,0-1.85,1.81,12.11,12.11,0,0,0-.52-2.54,12.24,12.24,0,0,0-1.81-1.85,11.59,11.59,0,0,0,2.53-.53A11.5,11.5,0,0,0,215.28,280Z" transform="translate(-25.85 -18)"/><path class="cls-81" d="M514.52,410.9a12.05,12.05,0,0,0,.52,2.53,11.5,11.5,0,0,0,1.81,1.86,12.24,12.24,0,0,0-2.54.52,11.77,11.77,0,0,0-1.85,1.81,4.59,4.59,0,0,0-2.33-4.39,4.61,4.61,0,0,0,4.39-2.33Z" transform="translate(-25.85 -18)"/><path class="cls-82" d="M533.88,375.68a19.87,19.87,0,0,0,.88,4.23,19.59,19.59,0,0,0,3,3.08,19.87,19.87,0,0,0-4.23.88,20,20,0,0,0-3.08,3,19.75,19.75,0,0,0-.88-4.23,19.71,19.71,0,0,0-3-3.09,19.75,19.75,0,0,0,4.23-.88A19.32,19.32,0,0,0,533.88,375.68Z" transform="translate(-25.85 -18)"/><path class="cls-83" d="M299.64,410.4a19.75,19.75,0,0,0,.88,4.23,19.32,19.32,0,0,0,3,3.09,19.87,19.87,0,0,0-4.23.88,19.76,19.76,0,0,0-3.09,3,19.7,19.7,0,0,0-.87-4.23,20,20,0,0,0-3-3.08,19.75,19.75,0,0,0,4.23-.88A19.71,19.71,0,0,0,299.64,410.4Z" transform="translate(-25.85 -18)"/><path class="cls-84" d="M178.52,293.27a20.35,20.35,0,0,0,.87,4.23,20.18,20.18,0,0,0,3,3.09,19.7,19.7,0,0,0-4.23.87,20.18,20.18,0,0,0-3.09,3,19.59,19.59,0,0,0-.87-4.23,19.71,19.71,0,0,0-3-3.09,19.75,19.75,0,0,0,4.23-.88A19.76,19.76,0,0,0,178.52,293.27Z" transform="translate(-25.85 -18)"/><path class="cls-85" d="M283.79,401a2,2,0,1,0-1.3-2.44A2,2,0,0,0,283.79,401Z" transform="translate(-25.85 -18)"/><path class="cls-86" d="M177.29,219.32a7,7,0,0,1,1-1,6.57,6.57,0,0,1,1.41-.29,2.57,2.57,0,0,1-1.29-2.44,7,7,0,0,1-1,1,6.57,6.57,0,0,1-1.41.29,6.6,6.6,0,0,1,1,1A6.45,6.45,0,0,1,177.29,219.32Z" transform="translate(-25.85 -18)"/><path class="cls-87" d="M325.32,340.58a6.56,6.56,0,0,1,1-1,7.12,7.12,0,0,1,1.41-.29,6.56,6.56,0,0,1-1-1,6.45,6.45,0,0,1-.29-1.41,2.55,2.55,0,0,1-2.44,1.3,2.55,2.55,0,0,1,1.3,2.44Z" transform="translate(-25.85 -18)"/><path class="cls-88" d="M509.83,391.28a6.17,6.17,0,0,1,1-1,6.74,6.74,0,0,1,1.41-.3,6.85,6.85,0,0,1-1-1,6.57,6.57,0,0,1-.29-1.41,2.57,2.57,0,0,1-2.44,1.29,2.55,2.55,0,0,1,1.3,2.44Z" transform="translate(-25.85 -18)"/><path class="cls-89" d="M157.84,379.69a6.17,6.17,0,0,1,1-1,6.74,6.74,0,0,1,1.41-.3,6.85,6.85,0,0,1-1-1A6.57,6.57,0,0,1,159,376a6.6,6.6,0,0,1-1,1,6.57,6.57,0,0,1-1.41.29,2.55,2.55,0,0,1,1.3,2.44Z" transform="translate(-25.85 -18)"/><path class="cls-90" d="M205.32,301.87a6.56,6.56,0,0,1,1-1,6.45,6.45,0,0,1,1.41-.29,2.55,2.55,0,0,1-1.3-2.44,6.56,6.56,0,0,1-1,1,6.57,6.57,0,0,1-1.41.29,6.56,6.56,0,0,1,1,1A7.12,7.12,0,0,1,205.32,301.87Z" transform="translate(-25.85 -18)"/><path class="cls-91" d="M267.41,224.49a.65.65,0,1,1-.43-.82A.66.66,0,0,1,267.41,224.49Zm8.49-9.92a1.31,1.31,0,1,0,.87,1.63A1.31,1.31,0,0,0,275.9,214.57Zm-2.08,15.74a2.61,2.61,0,1,0,1.73,3.26A2.61,2.61,0,0,0,273.82,230.31Zm-22.53-3.7a1.31,1.31,0,1,0,.87,1.63A1.31,1.31,0,0,0,251.29,226.61Z" transform="translate(-25.85 -18)"/><path class="cls-92" d="M371.4,391.78a4.57,4.57,0,0,0-3.09-3.9,11.82,11.82,0,0,0,2.4-1,12.15,12.15,0,0,0,1.5-2.12,4.6,4.6,0,0,0,3.09,3.9,12.06,12.06,0,0,0-2.4,1A11.78,11.78,0,0,0,371.4,391.78Z" transform="translate(-25.85 -18)"/><path class="cls-93" d="M352.19,472.57a4.58,4.58,0,0,0-3.08-3.9,11.64,11.64,0,0,0,2.4-1,12.15,12.15,0,0,0,1.49-2.11,11.64,11.64,0,0,0,1,2.4,11.79,11.79,0,0,0,2.11,1.5,12.06,12.06,0,0,0-2.4,1A11.78,11.78,0,0,0,352.19,472.57Z" transform="translate(-25.85 -18)"/><path class="cls-94" d="M386,452.87a20,20,0,0,0-1.62-4,20.13,20.13,0,0,0-3.52-2.49,20,20,0,0,0,4-1.62,20.11,20.11,0,0,0,2.49-3.53,19.31,19.31,0,0,0,1.63,4,19.77,19.77,0,0,0,3.52,2.5,19.72,19.72,0,0,0-4,1.62A19.77,19.77,0,0,0,386,452.87Z" transform="translate(-25.85 -18)"/><path class="cls-95" d="M390.72,364.14a6.59,6.59,0,0,1-.83,1.17,6.43,6.43,0,0,1-1.34.54,7,7,0,0,1,1.18.83,7.05,7.05,0,0,1,.54,1.34,7,7,0,0,1,.83-1.18,6.77,6.77,0,0,1,1.33-.54,6.59,6.59,0,0,1-1.17-.83A6.19,6.19,0,0,1,390.72,364.14Z" transform="translate(-25.85 -18)"/><path class="cls-96" d="M358.05,449.25a6.26,6.26,0,0,1-.84,1.17,6.77,6.77,0,0,1-1.33.54,6.59,6.59,0,0,1,1.17.83,6.38,6.38,0,0,1,.55,1.34,6.41,6.41,0,0,1,.83-1.18,6.77,6.77,0,0,1,1.33-.54,6.59,6.59,0,0,1-1.17-.83A6.19,6.19,0,0,1,358.05,449.25Z" transform="translate(-25.85 -18)"/><path class="cls-97" d="M372.93,421.77a.65.65,0,0,1,.72-.57.65.65,0,1,1-.15,1.3A.65.65,0,0,1,372.93,421.77Zm-6.57,11.29a1.31,1.31,0,1,0-1.14-1.45A1.31,1.31,0,0,0,366.36,433.06Zm-.78-15.86a2.61,2.61,0,1,0-2.3-2.89A2.61,2.61,0,0,0,365.58,417.2Zm22.82-.42a1.32,1.32,0,0,0,1.45-1.15,1.31,1.31,0,1,0-1.45,1.15Z" transform="translate(-25.85 -18)"/><path class="cls-98" d="M144,161.57a12.06,12.06,0,0,0-1-2.4,11.79,11.79,0,0,0-2.11-1.5,12.06,12.06,0,0,0,2.4-1,12.14,12.14,0,0,0,1.49-2.12,11.67,11.67,0,0,0,1,2.41,12.15,12.15,0,0,0,2.11,1.49,11.64,11.64,0,0,0-2.4,1A11.79,11.79,0,0,0,144,161.57Z" transform="translate(-25.85 -18)"/><path class="cls-99" d="M173.92,258a12.06,12.06,0,0,0-1-2.4,11.79,11.79,0,0,0-2.11-1.5,12.06,12.06,0,0,0,2.4-1,12.14,12.14,0,0,0,1.49-2.12,11.42,11.42,0,0,0,1,2.4,11.79,11.79,0,0,0,2.11,1.5,12.06,12.06,0,0,0-2.4,1A12.15,12.15,0,0,0,173.92,258Z" transform="translate(-25.85 -18)"/><path class="cls-100" d="M178.51,224.22a20,20,0,0,0-1.62-4,19.58,19.58,0,0,0-3.53-2.49,19.9,19.9,0,0,0,4-1.63,19.77,19.77,0,0,0,2.5-3.52,19.72,19.72,0,0,0,1.62,4,19.77,19.77,0,0,0,3.52,2.5,20,20,0,0,0-4,1.62A20.13,20.13,0,0,0,178.51,224.22Z" transform="translate(-25.85 -18)"/><path class="cls-101" d="M212.45,149.55a7,7,0,0,1-.83,1.18,7.05,7.05,0,0,1-1.34.54,7,7,0,0,1,1.18.83,6.77,6.77,0,0,1,.54,1.33,6.59,6.59,0,0,1,.83-1.17,6.19,6.19,0,0,1,1.33-.54,6.59,6.59,0,0,1-1.17-.83A6.43,6.43,0,0,1,212.45,149.55Z" transform="translate(-25.85 -18)"/><path class="cls-102" d="M150.6,220.6a6.59,6.59,0,0,1-.83,1.17,6.77,6.77,0,0,1-1.33.54,6.59,6.59,0,0,1,1.17.83,6.77,6.77,0,0,1,.54,1.33,6.59,6.59,0,0,1,.83-1.17,6.77,6.77,0,0,1,1.33-.54,6.59,6.59,0,0,1-1.17-.83A6.77,6.77,0,0,1,150.6,220.6Z" transform="translate(-25.85 -18)"/><path class="cls-103" d="M145.56,191.57a.64.64,0,0,1,.72-.57.65.65,0,1,1-.72.57ZM139,202.85a1.3,1.3,0,1,0-1.15-1.45A1.3,1.3,0,0,0,139,202.85ZM138.21,187a2.61,2.61,0,1,0-2.29-2.89A2.6,2.6,0,0,0,138.21,187Zm22.82-.42a1.3,1.3,0,1,0,.3-2.59,1.32,1.32,0,0,0-1.45,1.15A1.3,1.3,0,0,0,161,186.57Z" transform="translate(-25.85 -18)"/><path class="cls-104" d="M398.89,104.36a12.06,12.06,0,0,0-1-2.4,12,12,0,0,0-2.12-1.49,12,12,0,0,0,2.4-1,11.79,11.79,0,0,0,1.5-2.11,12.06,12.06,0,0,0,1,2.4,11.78,11.78,0,0,0,2.12,1.5,11.82,11.82,0,0,0-2.4,1A11.79,11.79,0,0,0,398.89,104.36Z" transform="translate(-25.85 -18)"/><path class="cls-105" d="M450.8,225.42a12.06,12.06,0,0,0-1-2.4,11.78,11.78,0,0,0-2.12-1.5,12.09,12.09,0,0,0,2.41-1,12.14,12.14,0,0,0,1.49-2.12,12.09,12.09,0,0,0,1,2.41,12.53,12.53,0,0,0,2.12,1.49,11.64,11.64,0,0,0-2.4,1A11.79,11.79,0,0,0,450.8,225.42Z" transform="translate(-25.85 -18)"/><path class="cls-106" d="M484.56,205.73a19.72,19.72,0,0,0-1.62-4,19.77,19.77,0,0,0-3.52-2.5,20,20,0,0,0,4-1.62,20.13,20.13,0,0,0,2.49-3.52,20,20,0,0,0,1.62,4,20.11,20.11,0,0,0,3.53,2.49,19.72,19.72,0,0,0-4,1.62A19.76,19.76,0,0,0,484.56,205.73Z" transform="translate(-25.85 -18)"/><path class="cls-107" d="M408.11,72.64a7,7,0,0,1-.83,1.18,6.77,6.77,0,0,1-1.33.54,6.59,6.59,0,0,1,1.17.83,6.19,6.19,0,0,1,.54,1.33,6.59,6.59,0,0,1,.83-1.17,6.43,6.43,0,0,1,1.34-.54,7,7,0,0,1-1.18-.83A7.05,7.05,0,0,1,408.11,72.64Z" transform="translate(-25.85 -18)"/><path class="cls-108" d="M456.65,202.1a7,7,0,0,1-.83,1.18,6.77,6.77,0,0,1-1.33.54,6.59,6.59,0,0,1,1.17.83,6.19,6.19,0,0,1,.54,1.33,6.26,6.26,0,0,1,.84-1.17,6.19,6.19,0,0,1,1.33-.54,6.59,6.59,0,0,1-1.18-.84A6.77,6.77,0,0,1,456.65,202.1Z" transform="translate(-25.85 -18)"/><path class="cls-109" d="M471.54,174.63a.65.65,0,0,1,1.29.15.65.65,0,1,1-1.29-.15ZM465,185.91a1.3,1.3,0,1,0-1.14-1.44A1.31,1.31,0,0,0,465,185.91Zm-.79-15.86a2.61,2.61,0,1,0-2.29-2.89A2.61,2.61,0,0,0,464.18,170.05Zm22.83-.41a1.31,1.31,0,1,0-1.15-1.45A1.32,1.32,0,0,0,487,169.64Z" transform="translate(-25.85 -18)"/><path class="cls-110" d="M230.46,259.37a.64.64,0,0,1,.77-.5.65.65,0,1,1-.77.5ZM222.84,270a1.3,1.3,0,1,0-1-1.55A1.29,1.29,0,0,0,222.84,270Zm.74-15.86a2.61,2.61,0,1,0-2-3.1A2.61,2.61,0,0,0,223.58,254.11Zm22.76,1.78a1.3,1.3,0,1,0,.54-2.55,1.3,1.3,0,1,0-.54,2.55Z" transform="translate(-25.85 -18)"/><path class="cls-111" d="M43.25,382a12.11,12.11,0,0,0,.52,2.54,12.24,12.24,0,0,0,1.81,1.85,11.59,11.59,0,0,0-2.53.53,11.5,11.5,0,0,0-1.86,1.81,12.11,12.11,0,0,0-.52-2.54,12.24,12.24,0,0,0-1.81-1.85,11.59,11.59,0,0,0,2.53-.53A11.5,11.5,0,0,0,43.25,382Z" transform="translate(-25.85 -18)"/><path class="cls-112" d="M95.38,326.5a.65.65,0,0,1-.81.43.65.65,0,1,1,.81-.43Zm8.49-9.92a1.31,1.31,0,1,0,.87,1.63A1.31,1.31,0,0,0,103.87,316.58Zm-2.08,15.74a2.61,2.61,0,1,0,1.73,3.26A2.62,2.62,0,0,0,101.79,332.32Zm-22.53-3.7a1.31,1.31,0,1,0,.87,1.63A1.31,1.31,0,0,0,79.26,328.62Z" transform="translate(-25.85 -18)"/><path class="cls-113" d="M58.43,361.38a.65.65,0,0,1,1.27.27.65.65,0,0,1-.77.51A.66.66,0,0,1,58.43,361.38ZM50.81,372a1.3,1.3,0,1,0-1-1.55A1.31,1.31,0,0,0,50.81,372Zm.74-15.86a2.61,2.61,0,1,0-2-3.1A2.61,2.61,0,0,0,51.55,356.12Zm22.76,1.78a1.3,1.3,0,0,0,.55-2.55,1.3,1.3,0,1,0-.55,2.55Z" transform="translate(-25.85 -18)"/><path class="cls-114" d="M249.84,478.69a2.55,2.55,0,0,1,2.44-1.3A2.55,2.55,0,0,1,251,475a6.56,6.56,0,0,1-1,1,6.45,6.45,0,0,1-1.41.29,2.55,2.55,0,0,1,1.3,2.44Z" transform="translate(-25.85 -18)"/><path class="cls-115" d="M176.69,451.64a11.67,11.67,0,0,0-1-2.41,12.15,12.15,0,0,0-2.11-1.49,11.64,11.64,0,0,0,2.4-1,11.79,11.79,0,0,0,1.5-2.11,12.06,12.06,0,0,0,1,2.4,11.78,11.78,0,0,0,2.12,1.5,12.09,12.09,0,0,0-2.41,1A12.14,12.14,0,0,0,176.69,451.64Z" transform="translate(-25.85 -18)"/><path class="cls-116" d="M210.45,431.94a20,20,0,0,0-1.62-4,20.11,20.11,0,0,0-3.53-2.49,19.72,19.72,0,0,0,4-1.62,19.76,19.76,0,0,0,2.5-3.53,19.72,19.72,0,0,0,1.62,4,19.76,19.76,0,0,0,3.53,2.5,20,20,0,0,0-4,1.62A20.13,20.13,0,0,0,210.45,431.94Z" transform="translate(-25.85 -18)"/><path class="cls-117" d="M182.54,428.32a6.59,6.59,0,0,1-.83,1.17,6.77,6.77,0,0,1-1.33.54,6.59,6.59,0,0,1,1.17.83,6.8,6.8,0,0,1,.54,1.34,7,7,0,0,1,.83-1.18,6.77,6.77,0,0,1,1.33-.54,6.59,6.59,0,0,1-1.17-.83A6.77,6.77,0,0,1,182.54,428.32Z" transform="translate(-25.85 -18)"/><path class="cls-118" d="M233.22,453a.65.65,0,1,1,.5.77A.65.65,0,0,1,233.22,453Zm-7.62,10.6a1.31,1.31,0,1,0-1-1.55A1.3,1.3,0,0,0,225.6,463.63Zm.74-15.86a2.61,2.61,0,1,0-2-3.1A2.61,2.61,0,0,0,226.34,447.77Zm22.76,1.77a1.29,1.29,0,0,0,1.55-1,1.3,1.3,0,1,0-1.55,1Z" transform="translate(-25.85 -18)"/><path class="cls-119" d="M549.07,249.37a12.11,12.11,0,0,0,.52,2.54,12.24,12.24,0,0,0,1.81,1.85A4.62,4.62,0,0,0,547,256.1a12.11,12.11,0,0,0-.52-2.54,12.24,12.24,0,0,0-1.81-1.85,4.64,4.64,0,0,0,4.39-2.34Z" transform="translate(-25.85 -18)"/><path class="cls-120" d="M568.43,214.15a19.75,19.75,0,0,0,.88,4.23,19.32,19.32,0,0,0,3,3.09,19.87,19.87,0,0,0-4.23.88,19.59,19.59,0,0,0-3.08,3,19.87,19.87,0,0,0-.88-4.23,19.55,19.55,0,0,0-3-3.08,19.75,19.75,0,0,0,4.23-.88A19.71,19.71,0,0,0,568.43,214.15Z" transform="translate(-25.85 -18)"/><path class="cls-121" d="M524.59,318.51a19.59,19.59,0,0,0,.87,4.23,20.18,20.18,0,0,0,3,3.09,20.23,20.23,0,0,0-4.23.87,20.18,20.18,0,0,0-3.09,3,20.23,20.23,0,0,0-.87-4.23,20.18,20.18,0,0,0-3-3.09,20.35,20.35,0,0,0,4.23-.87A20.18,20.18,0,0,0,524.59,318.51Z" transform="translate(-25.85 -18)"/><path class="cls-122" d="M703.89,182.51a12,12,0,0,0-1.25-2.27,11.52,11.52,0,0,0-2.27-1.24,12.09,12.09,0,0,0,2.27-1.24,12,12,0,0,0,1.25-2.28,11.82,11.82,0,0,0,1.24,2.28A12.41,12.41,0,0,0,707.4,179a11.81,11.81,0,0,0-2.27,1.24A11.81,11.81,0,0,0,703.89,182.51Z" transform="translate(-25.85 -18)"/><path class="cls-123" d="M694.12,265a11.7,11.7,0,0,0-1.25-2.27,11.7,11.7,0,0,0-2.27-1.25,11.52,11.52,0,0,0,2.27-1.24,12,12,0,0,0,1.25-2.27,11.81,11.81,0,0,0,1.24,2.27,11.81,11.81,0,0,0,2.27,1.24,12,12,0,0,0-2.27,1.25A11.52,11.52,0,0,0,694.12,265Z" transform="translate(-25.85 -18)"/><path class="cls-124" d="M662.52,376.53a12,12,0,0,0-1.25-2.27A11.81,11.81,0,0,0,659,373a12,12,0,0,0,2.27-1.25,11.7,11.7,0,0,0,1.25-2.27,11.52,11.52,0,0,0,1.24,2.27A12,12,0,0,0,666,373a4.59,4.59,0,0,0-3.51,3.51Z" transform="translate(-25.85 -18)"/><path class="cls-125" d="M654.29,415.88a19.37,19.37,0,0,0-2.07-3.79,19.37,19.37,0,0,0-3.79-2.07,19.55,19.55,0,0,0,3.79-2.08,19.37,19.37,0,0,0,2.07-3.79,19.55,19.55,0,0,0,2.08,3.79,19.54,19.54,0,0,0,3.78,2.08,19.36,19.36,0,0,0-3.78,2.07A19.55,19.55,0,0,0,654.29,415.88Z" transform="translate(-25.85 -18)"/><path class="cls-126" d="M650,346.31a19.37,19.37,0,0,0-2.07-3.79,19.94,19.94,0,0,0-3.79-2.07,19.94,19.94,0,0,0,3.79-2.07,19.66,19.66,0,0,0,2.07-3.79,19.84,19.84,0,0,0,2.08,3.79,19.94,19.94,0,0,0,3.79,2.07,19.94,19.94,0,0,0-3.79,2.07A19.55,19.55,0,0,0,650,346.31Z" transform="translate(-25.85 -18)"/><path class="cls-127" d="M725.38,241.53a19.94,19.94,0,0,0-2.07-3.79,19.94,19.94,0,0,0-3.79-2.07,19.94,19.94,0,0,0,3.79-2.07,20.25,20.25,0,0,0,2.07-3.79,19.84,19.84,0,0,0,2.08,3.79,19.93,19.93,0,0,0,3.78,2.07,19.93,19.93,0,0,0-3.78,2.07A19.55,19.55,0,0,0,725.38,241.53Z" transform="translate(-25.85 -18)"/><path class="cls-128" d="M667.9,350.64a2,2,0,1,0,2,2A2,2,0,0,0,667.9,350.64Z" transform="translate(-25.85 -18)"/><path class="cls-129" d="M699.79,458.11a2.56,2.56,0,0,1-1.95,1.95,6.74,6.74,0,0,1,1.26.69,6.46,6.46,0,0,1,.69,1.26,2.56,2.56,0,0,1,2-1.95,6.46,6.46,0,0,1-1.26-.69A6.74,6.74,0,0,1,699.79,458.11Z" transform="translate(-25.85 -18)"/><path class="cls-130" d="M645.86,420.59a6.74,6.74,0,0,1-.69,1.26,6.46,6.46,0,0,1-1.26.69,2.55,2.55,0,0,1,2,2,6.47,6.47,0,0,1,.69-1.27,6.74,6.74,0,0,1,1.26-.69,2.56,2.56,0,0,1-1.95-2Z" transform="translate(-25.85 -18)"/><path class="cls-131" d="M672.73,393.92a2.56,2.56,0,0,1-2,1.95,6.74,6.74,0,0,1,1.26.69,6.47,6.47,0,0,1,.69,1.27,2.55,2.55,0,0,1,2-2,6.47,6.47,0,0,1-1.27-.69A6.74,6.74,0,0,1,672.73,393.92Z" transform="translate(-25.85 -18)"/><path class="cls-132" d="M719.89,152.83a7.07,7.07,0,0,1-.69,1.27,6.74,6.74,0,0,1-1.26.69,6.19,6.19,0,0,1,1.26.69,6.74,6.74,0,0,1,.69,1.26,6.74,6.74,0,0,1,.69-1.26,6.46,6.46,0,0,1,1.26-.69,7.07,7.07,0,0,1-1.26-.69A7.07,7.07,0,0,1,719.89,152.83Z" transform="translate(-25.85 -18)"/><path class="cls-133" d="M697.24,241.14a2.56,2.56,0,0,1-2,2,6.74,6.74,0,0,1,1.26.69,6.47,6.47,0,0,1,.69,1.27,2.55,2.55,0,0,1,2-2,6.47,6.47,0,0,1-1.27-.69A6.74,6.74,0,0,1,697.24,241.14Z" transform="translate(-25.85 -18)"/><path class="cls-134" d="M708.86,212.14a.66.66,0,0,1,.65-.66.67.67,0,0,1,.66.66.66.66,0,0,1-.66.65A.65.65,0,0,1,708.86,212.14Zm-5.22,12a1.31,1.31,0,1,0-1.3-1.3A1.31,1.31,0,0,0,703.64,224.1ZM701,208.44a2.61,2.61,0,1,0-2.61-2.61A2.61,2.61,0,0,0,701,208.44Zm22.62-3.05a1.31,1.31,0,1,0-1.3-1.3A1.31,1.31,0,0,0,723.65,205.39Z" transform="translate(-25.85 -18)"/><path class="cls-135" d="M669.25,440.27a.65.65,0,1,1-1.3.11.67.67,0,0,1,.6-.71A.65.65,0,0,1,669.25,440.27Zm4.19-12.36a1.3,1.3,0,1,0,1.41,1.19A1.3,1.3,0,0,0,673.44,427.91Zm3.93,15.38a2.61,2.61,0,1,0,2.82,2.38A2.61,2.61,0,0,0,677.37,443.29Zm-22.28,4.95a1.3,1.3,0,1,0,1.41,1.19A1.31,1.31,0,0,0,655.09,448.24Z" transform="translate(-25.85 -18)"/><path class="cls-136" d="M715.37,405.88a11.65,11.65,0,0,0,.53,2.54,11.77,11.77,0,0,0,1.81,1.85,11.65,11.65,0,0,0-2.54.53,11.77,11.77,0,0,0-1.85,1.81,11.65,11.65,0,0,0-.53-2.54,11.77,11.77,0,0,0-1.81-1.85,11.65,11.65,0,0,0,2.54-.53A11.77,11.77,0,0,0,715.37,405.88Z" transform="translate(-25.85 -18)"/><path class="cls-137" d="M734.74,370.66a20.23,20.23,0,0,0,.87,4.23,20.18,20.18,0,0,0,3,3.09,7.67,7.67,0,0,0-7.32,3.89,19.7,19.7,0,0,0-.87-4.23,20.18,20.18,0,0,0-3-3.09,19.59,19.59,0,0,0,4.23-.87A20.18,20.18,0,0,0,734.74,370.66Z" transform="translate(-25.85 -18)"/><path class="cls-138" d="M710.69,386.27a6.56,6.56,0,0,1,1-1,6.45,6.45,0,0,1,1.41-.29,2.55,2.55,0,0,1-1.3-2.44,2.55,2.55,0,0,1-2.44,1.3,2.55,2.55,0,0,1,1.3,2.44Z" transform="translate(-25.85 -18)"/><path class="cls-139" d="M725.45,313.5a19.7,19.7,0,0,0,.87,4.23,20,20,0,0,0,3,3.08,19.75,19.75,0,0,0-4.23.88,19.28,19.28,0,0,0-3.09,3,19.75,19.75,0,0,0-.88-4.23,19.32,19.32,0,0,0-3-3.09,19.87,19.87,0,0,0,4.23-.88A19.76,19.76,0,0,0,725.45,313.5Z" transform="translate(-25.85 -18)"/><path class="cls-140" d="M536.35,272.56a2,2,0,0,0,1.15-3.75,2,2,0,0,0-1.15,3.75Z" transform="translate(-25.85 -18)"/><path class="cls-141" d="M509.66,197a6.6,6.6,0,0,1,1-1,6.39,6.39,0,0,1,1.4-.29,6.6,6.6,0,0,1-1-1,6.57,6.57,0,0,1-.29-1.41,6.56,6.56,0,0,1-1,1,7.26,7.26,0,0,1-1.41.29,6.56,6.56,0,0,1,1,1A7.06,7.06,0,0,1,509.66,197Z" transform="translate(-25.85 -18)"/><path class="cls-142" d="M577.88,212.11a2.57,2.57,0,0,1,2.44-1.29,7,7,0,0,1-1-1,6.57,6.57,0,0,1-.29-1.41,2.57,2.57,0,0,1-2.44,1.29,7,7,0,0,1,1,1A6.57,6.57,0,0,1,577.88,212.11Z" transform="translate(-25.85 -18)"/><path class="cls-143" d="M544.38,229.76a2.55,2.55,0,0,1,2.44-1.3,6.56,6.56,0,0,1-1-1,6.45,6.45,0,0,1-.29-1.41,2.55,2.55,0,0,1-2.44,1.3,2.55,2.55,0,0,1,1.3,2.44Z" transform="translate(-25.85 -18)"/><path class="cls-144" d="M561.26,186.45a.66.66,0,1,1,.5.78A.65.65,0,0,1,561.26,186.45Zm-7.62,10.6a1.3,1.3,0,1,0-1-1.55A1.3,1.3,0,0,0,553.64,197.05Zm.74-15.86a2.61,2.61,0,1,0-2-3.1A2.61,2.61,0,0,0,554.38,181.19ZM577.14,183a1.3,1.3,0,1,0-1-1.55A1.31,1.31,0,0,0,577.14,183Z" transform="translate(-25.85 -18)"/><path class="cls-145" d="M662,117.7a16,16,0,0,0,.68,3.31,15.87,15.87,0,0,0,2.36,2.41,15.5,15.5,0,0,0-3.31.69,15.41,15.41,0,0,0-2.41,2.36,15.38,15.38,0,0,0-.69-3.31,15.13,15.13,0,0,0-2.36-2.42,16,16,0,0,0,3.31-.68A15.57,15.57,0,0,0,662,117.7Z" transform="translate(-25.85 -18)"/><path class="cls-146" d="M687.22,71.76s.48,4.27,1.14,5.51,3.93,4,3.93,4-4.27.48-5.51,1.14-4,3.94-4,3.94-.48-4.27-1.14-5.52-3.94-4-3.94-4,4.28-.48,5.52-1.14S687.22,71.76,687.22,71.76Z" transform="translate(-25.85 -18)"/><path class="cls-147" d="M645.37,147.94a2.56,2.56,0,1,0-1.7-3.2A2.56,2.56,0,0,0,645.37,147.94Z" transform="translate(-25.85 -18)"/><path class="cls-148" d="M699.54,69.09a8.79,8.79,0,0,1,1.34-1.31,8.74,8.74,0,0,1,1.84-.38,8.33,8.33,0,0,1-1.31-1.34,8.62,8.62,0,0,1-.38-1.84,8.79,8.79,0,0,1-1.34,1.31,8.74,8.74,0,0,1-1.84.38,8.5,8.5,0,0,1,1.31,1.35A8.56,8.56,0,0,1,699.54,69.09Z" transform="translate(-25.85 -18)"/><path class="cls-149" d="M655.84,92.11a8.5,8.5,0,0,1,1.35-1.31,8.56,8.56,0,0,1,1.83-.38,8.79,8.79,0,0,1-1.31-1.34,8.74,8.74,0,0,1-.38-1.84A8.33,8.33,0,0,1,656,88.55a8.62,8.62,0,0,1-1.84.38,8.79,8.79,0,0,1,1.31,1.34A8.74,8.74,0,0,1,655.84,92.11Z" transform="translate(-25.85 -18)"/><path class="cls-150" d="M677.86,35.62a.85.85,0,1,1,.66,1A.85.85,0,0,1,677.86,35.62Zm-9.93,13.83a1.7,1.7,0,1,0-1.31-2A1.71,1.71,0,0,0,667.93,49.45Zm1-20.69a3.41,3.41,0,1,0-2.61-4A3.41,3.41,0,0,0,668.89,28.76Zm29.69,2.32a1.7,1.7,0,1,0-1.31-2A1.7,1.7,0,0,0,698.58,31.08Z" transform="translate(-25.85 -18)"/></g></g></g></g></svg>